<svg width="5356" height="556" xmlns="http://www.w3.org/2000/svg">
 <g>
  <title>background</title>
  <rect fill="none" id="canvas_background" height="402" width="582" y="-1" x="-1"/>
 </g>

 <g>
  <title>Layer 1</title>
  <g id="svg_262">undefined</g>
  <g stroke="null" id="svg_115">
   <rect stroke="null" x="130151.452995" y="12819.672074" transform="matrix(-1.131378861293722,0,0,1.0365894807273013,147544.47716047365,-13285.563709603306) " id="svg_110" rx="60" fill="#242938" height="256" width="256"/>
   <path stroke="null" id="svg_111" clip-rule="evenodd" d="m63.277968,74.52756l71.435261,-38.851581c8.526071,-4.637287 19.035449,-4.637287 27.56152,0l71.43594,38.851581c8.523808,4.63739 13.777253,13.205735 13.777253,22.480412l0,77.703473c0,9.272293 -5.253445,17.844888 -13.779742,22.482589l-71.435714,38.844118c-4.263036,2.319887 -9.01709,3.476721 -13.779063,3.476721c-4.759711,0 -9.514896,-1.156834 -13.777932,-3.476721l-71.435261,-38.844118c-8.526071,-4.637701 -13.782457,-13.210296 -13.782457,-22.482589l0,-77.703473c0,-9.274677 5.256386,-17.843022 13.780195,-22.480412z" fill-rule="evenodd" fill="#242938"/>
   <path stroke="null" id="svg_112" clip-rule="evenodd" d="m159.775533,232.060759l71.435714,-38.845154c6.98717,-3.800137 11.327591,-10.890409 11.327591,-18.505195l0,-77.701296c0,-7.615408 -4.340535,-14.705058 -11.325102,-18.503537l-71.438203,-38.851581c-3.424684,-1.862751 -7.325678,-2.847822 -11.28211,-2.847822c-3.954169,0 -7.855163,0.985071 -11.283241,2.847822l-71.435261,38.851581c-5.887696,3.201921 -9.858835,8.746638 -10.975506,14.965553c2.369107,-4.632726 7.71261,-5.892078 13.938588,-2.559754l67.581785,38.246109c8.42651,4.513311 14.640042,9.578087 14.645699,18.887697l0,76.297132c0.004526,5.574778 -2.452829,9.185219 -6.227109,10.232175c1.239991,0.196952 2.490165,0.333782 3.755046,0.333782c3.956432,0 7.857426,-0.98476 11.28211,-2.847511zm-96.497566,-157.534339l71.435261,-38.849301c4.263036,-2.319784 9.022746,-3.478587 13.780195,-3.478587c4.758579,0 9.51829,1.158803 13.781326,3.478587l71.43594,38.849301c8.523808,4.63739 13.777253,13.208016 13.777253,22.482693l0,77.701296c0,9.272293 -5.253445,17.844888 -13.779742,22.482589l-71.435714,38.846191c-4.265298,2.317814 -9.020484,3.476721 -13.779063,3.476721c-4.759711,0 -9.514896,-1.158907 -13.777932,-3.476721l-71.437524,-38.846191c-8.526071,-4.637701 -13.780195,-13.210296 -13.780195,-22.482589l0,-77.701296c0,-9.274677 5.254123,-17.845303 13.780195,-22.482693z" fill-rule="evenodd" fill="#fff"/>
   <path stroke="null" id="svg_113" clip-rule="evenodd" d="m82.004551,182.222573l17.787538,9.754307c0.471785,0.251891 0.817987,0.53488 0.821381,1.054212l0,4.264529c0,0.521405 -0.382406,0.738052 -0.85306,0.484087l-18.063595,-10.058028c-0.470654,-0.251891 -0.543062,-0.733905 -0.546456,-1.253237l0,-3.761783c0,-0.518295 0.382406,-0.735979 0.854191,-0.484087z" fill-rule="evenodd" fill="#47B353"/>
   <path stroke="null" id="svg_114" clip-rule="evenodd" d="m119.881983,146.324443c-0.575872,-0.26744 -1.04992,0.061159 -1.057839,0.751527l-0.059963,5.63801c-2.57615,-0.93915 -4.814017,-1.190005 -6.841448,-0.760857c-0.440106,0.107805 -0.634704,0.656161 -0.454814,1.307139l1.35426,4.996361c0.105218,0.377319 0.337151,0.758783 0.616601,0.996162c0.117663,0.105732 0.23759,0.187623 0.356384,0.242562c0.182152,0.085 0.362041,0.111952 0.534011,0.079817c0.925468,-0.191769 3.126,-0.63232 6.588019,0.974394c3.631726,1.684458 4.902265,4.575506 4.877374,6.721246c-0.030547,2.562449 -1.465136,3.338855 -6.418312,3.416599c-6.600464,0.100549 -9.45267,2.742816 -9.521684,8.833816c-0.067883,5.981121 3.416764,12.40383 8.747821,16.33976l-0.117663,5.580998c-0.006788,0.67171 0.469522,1.441896 1.045394,1.709336l3.607967,1.904215c0.578135,0.26744 1.052182,-0.062195 1.060102,-0.733905l0.062226,-5.489778c3.089796,1.176529 6.221452,1.460555 8.22173,0.724576c0.376749,-0.134757 0.538536,-0.644759 0.389194,-1.225249l-1.307874,-5.046118c-0.104087,-0.39805 -0.333757,-0.796101 -0.646017,-1.049029c-0.109744,-0.098476 -0.224013,-0.174147 -0.338282,-0.227013c-0.207042,-0.095366 -0.409559,-0.116098 -0.581529,-0.057012c-2.155277,0.66549 -4.912447,0.354514 -7.563268,-0.874882c-3.368115,-1.561104 -5.62069,-4.708189 -5.585617,-7.834543c0.03281,-2.837145 1.708382,-4.015748 5.78474,-4.043736c5.188503,0.013476 10.025148,-0.923601 10.105476,-7.921617c0.064489,-5.761364 -3.205196,-11.756998 -8.381255,-15.547806l0.064489,-5.633864c0.00792,-0.692442 -0.453683,-1.454335 -1.047657,-1.727995l-3.492567,-2.043118z" fill-rule="evenodd" fill="#242938"/>
  </g>
  <g stroke="null" id="svg_124">
   <rect stroke="null" x="29424.264847" y="2885.368557" transform="matrix(1.0436803385738835,0,0,0.9990362609145662,-30362.261162551153,-2869.607505289842) " id="svg_119" fill="#0277BD" rx="60" height="256" width="256"/>
   <path stroke="null" id="svg_120" fill="#EBEBEB" d="m403.366171,115.532381l2.987848,31.911216l74.602792,0l0,-31.911216l-77.590641,0z"/>
   <path stroke="null" id="svg_121" fill="#EBEBEB" d="m480.955768,50.943688l-0.114805,0l-83.478772,0l3.03043,31.911516l80.563146,0l0,-31.911516z"/>
   <path stroke="null" id="svg_122" fill="#EBEBEB" d="m480.955768,231.610404l0,-33.200972l-0.146115,0.036964l-37.127571,-9.595743l-2.373433,-25.451448l-18.041267,0l-15.42403,0l4.67047,50.105665l68.288526,18.146495l0.153421,-0.04096z"/>
   <path stroke="null" id="svg_123" fill="white" d="m521.892042,147.443597l-3.869967,41.386076l-37.181112,9.606733l0,33.198974l68.34332,-18.13051l0.500967,-5.391799l7.833865,-84.010957l0.813027,-8.569733l6.018905,-64.588693l-83.510082,0l0,31.911516l46.975008,0l-3.032935,32.677177l-43.942073,0l0,31.911216l41.051079,0z"/>
  </g>
  <g stroke="null" id="svg_130">
   <rect stroke="null" x="39741.649379" y="3919.749307" transform="matrix(1.0686674742095212,0,0,1.0351872342034494,-41809.39802221976,-4053.606960618393) " id="svg_128" rx="60" fill="#2396ED" height="256" width="256"/>
   <path stroke="null" id="svg_129" d="m812.091995,130.487654l22.139584,0l0,-19.40355l-22.139584,0l0,19.40355zm-26.355477,0l22.138515,0l0,-19.40355l-22.138515,0l0,19.40355zm-25.829265,0l22.139157,0l0,-19.40355l-22.139157,0l0,19.40355zm-25.829159,0l21.61209,0l0,-19.40355l-21.61209,0l0,19.40355zm-26.356118,0l22.139157,0l0,-19.40355l-22.139157,0l0,19.40355zm26.356118,-23.488088l21.61209,0l0,-19.403239l-21.61209,0l0,19.403239zm25.829159,0l22.139157,0l0,-19.403239l-22.139157,0l0,19.403239zm25.829265,0l22.138515,0l0,-19.403239l-22.138515,0l0,19.403239zm0,-23.488088l22.138515,0l0,-19.403135l-22.138515,0l0,19.403135zm119.129707,38.296131c0,0 -9.488699,-8.68108 -28.99188,-5.616926c-2.108481,-14.807836 -18.449475,-23.488191 -18.449475,-23.488191c0,0 -15.28622,17.871265 -4.216962,37.785162c-3.162187,1.532077 -8.433924,3.574502 -16.340994,3.574502l-144.958651,0c-2.635655,9.701775 -2.635655,74.037626 70.107472,74.037626c52.184743,0 91.192174,-23.487363 109.641649,-66.379311c27.410252,2.04346 33.208842,-19.912862 33.208842,-19.912862z" fill="#fff"/>
  </g>
  <defs>
   <clipPath id="svg_134">
    <rect id="svg_139" x="1386.353088" y="134.924683" fill="#fff" height="200" width="200"/>
   </clipPath>
  </defs>
  <g stroke="null" id="svg_140"/>
  <defs>
   <clipPath id="svg_144">
    <rect id="svg_149" x="2697.781982" y="297.78186" fill="#fff" height="200" width="200"/>
   </clipPath>
  </defs>
  <g stroke="null" id="svg_156">
   <rect stroke="null" x="39968.782089" y="3950.755935" transform="matrix(1.057506835512024,0,0,0.9905443004901585,-41286.05028312718,-3889.3311961269724) " id="svg_154" fill="#242938" rx="60" height="256" width="256"/>
   <path stroke="null" id="svg_155" fill="white" d="m1116.571916,53.783907c-58.397537,0 -105.751741,44.347461 -105.751741,99.055421c0,43.765219 30.301061,80.894781 72.319403,93.992749c5.284679,0.917244 7.225204,-2.148491 7.225204,-4.764518c0,-2.362448 -0.098348,-10.164966 -0.143821,-18.441954c-29.419734,5.991802 -35.627723,-11.687432 -35.627723,-11.687432c-4.810599,-11.449702 -11.741816,-14.493644 -11.741816,-14.493644c-9.594865,-6.148308 0.723229,-6.021519 0.723229,-6.021519c10.619272,0.698334 16.21084,10.207559 16.21084,10.207559c9.432009,15.143441 24.739209,10.765235 30.773872,8.234395c0.949641,-6.402878 3.689641,-10.772169 6.714111,-13.245558c-23.488813,-2.505087 -48.180752,-10.999004 -48.180752,-48.95369c0,-10.814763 4.131045,-19.651408 10.895916,-26.587992c-1.098009,-2.494884 -4.717749,-12.56971 1.024513,-26.213764c0,0 8.880308,-2.662286 29.089369,10.153475c8.435732,-2.194749 17.481645,-3.295343 26.469396,-3.333083c8.986693,0.03774 18.041067,1.138334 26.491604,3.333083c20.184633,-12.815761 29.052885,-10.153475 29.052885,-10.153475c5.75601,13.644054 2.135106,23.71888 1.036357,26.213764c6.780734,6.936584 10.88386,15.773229 10.88386,26.587992c0,38.045816 -24.739315,46.422849 -48.287877,48.874446c3.793277,3.07465 7.173069,9.102112 7.173069,18.34389c0,13.253483 -0.122671,23.920654 -0.122671,27.183507c0,2.635838 1.903512,5.724356 7.264014,4.751641c41.995711,-13.112825 72.258385,-50.229511 72.258385,-93.979872c0,-54.70796 -47.347754,-99.055421 -105.749626,-99.055421zm-66.144303,141.106007c-0.232969,0.492301 -1.059516,0.639892 -1.812567,0.302116c-0.76701,-0.322917 -1.197838,-0.994506 -0.949112,-1.487798c0.227681,-0.507159 1.055921,-0.647816 1.821238,-0.308059c0.768807,0.322917 1.206615,1.00045 0.940441,1.493741zm5.20177,4.347499c-0.504325,0.438811 -1.490239,0.234759 -2.159217,-0.457631c-0.691715,-0.690409 -0.821366,-1.613597 -0.309955,-2.058351c0.520082,-0.437821 1.47628,-0.232778 2.169687,0.457631c0.691715,0.699324 0.826547,1.615578 0.299486,2.058351zm3.568663,5.562897c-0.647934,0.421972 -1.707451,0.026745 -2.362365,-0.85484c-0.64804,-0.880594 -0.64804,-1.936514 0.013959,-2.360467c0.656712,-0.422962 1.700471,-0.042593 2.364162,0.832057c0.646137,0.895452 0.646137,1.952363 -0.015757,2.38325zm6.035297,6.4425c-0.579619,0.598289 -1.814259,0.437821 -2.717898,-0.379378c-0.924578,-0.798379 -1.182081,-1.931561 -0.600664,-2.530841c0.586705,-0.60027 1.828324,-0.430887 2.738943,0.379378c0.917599,0.796398 1.197732,1.938495 0.579619,2.530841zm7.800065,2.174245c-0.255705,0.776587 -1.444766,1.129221 -2.642604,0.799369c-1.19604,-0.339757 -1.978807,-1.248086 -1.737166,-2.032597c0.248726,-0.780549 1.442968,-1.148041 2.649583,-0.795407c1.194348,0.337776 1.978807,1.240161 1.730187,2.028635zm8.876818,0.923187c0.029716,0.816209 -0.985914,1.493741 -2.243289,1.508599c-1.264355,0.026745 -2.28707,-0.634939 -2.301135,-1.43827c0,-0.825123 0.992999,-1.495722 2.257354,-1.515533c1.257376,-0.022783 2.28707,0.632958 2.28707,1.445204zm8.71999,-0.313012c0.151223,0.796398 -0.722277,1.615578 -1.971193,1.833498c-1.227765,0.209995 -2.364374,-0.282305 -2.520145,-1.072759c-0.152387,-0.817199 0.737188,-1.635389 1.962838,-1.847365c1.251031,-0.203062 2.369873,0.276362 2.528499,1.086627z"/>
  </g>
  <g stroke="null" id="svg_168">
   <rect stroke="null" x="40232.291343" y="4072.253582" transform="matrix(1.0240246608992496,0,0,1.0575085112433091,-39911.93397740042,-4173.803881607355) " id="svg_160" fill="#242938" rx="60" height="256" width="256"/>
   <path stroke="null" id="svg_161" fill="#E24329" d="m1417.998655,365.291871l38.464414,-119.701503l-76.924323,0l38.459909,119.697273l0,0.00423z"/>
   <path stroke="null" id="svg_162" fill="#FC6D26" d="m1417.998655,365.291871l-38.460011,-119.701503l-53.905682,0l92.365693,119.697273l0,0.00423z"/>
   <path stroke="null" id="svg_163" fill="#FCA326" d="m1325.633371,245.587195l-11.692314,36.378293c-1.068058,3.316347 0.096258,6.952061 2.889798,9.00257l101.168824,74.323813l-92.366308,-119.701503l0,-0.003173z"/>
   <path stroke="null" id="svg_164" fill="#E24329" d="m1325.632962,245.586138l53.905682,0l-23.167534,-72.096172c-1.191965,-3.707625 -6.384794,-3.707625 -7.57471,0l-23.163438,72.099344l0,-0.003173z"/>
   <path stroke="null" id="svg_165" fill="#FC6D26" d="m1417.999679,365.291871l38.464414,-119.701503l53.90773,0l-92.372145,119.697273l0,0.00423z"/>
   <path stroke="null" id="svg_166" fill="#FCA326" d="m1510.369775,245.587195l11.690266,36.378293c1.06601,3.316347 -0.102402,6.952061 -2.891846,9.00257l-101.168516,74.323813l92.370096,-119.701503l0,-0.003173z"/>
   <path stroke="null" id="svg_167" fill="#E24329" d="m1510.368751,245.586138l-53.904658,0l23.165486,-72.095114c1.192989,-3.707625 6.384794,-3.707625 7.57471,0l23.167534,72.098287l-0.003072,-0.003173z"/>
  </g>
  <g stroke="null" id="svg_178">
   <rect stroke="null" x="40479.061403" y="3932.956259" transform="matrix(0.9682211908427093,0,0,0.9347406518008131,-37591.47471284191,-3657.940859971568) " id="svg_172" fill="#242938" rx="60" height="256" width="256"/>
   <path stroke="null" id="svg_173" fill="#4285F4" d="m1641.523568,208.131762l30.806959,0l0,-72.230214l-44.01001,-31.865683l0,91.349774c0,7.052618 5.919317,12.746124 13.203051,12.746124z"/>
   <path stroke="null" id="svg_174" fill="#34A853" d="m1777.954261,208.131762l30.80783,0c7.305229,0 13.202664,-5.71407 13.202664,-12.746124l0,-91.349774l-44.010494,31.865683"/>
   <path stroke="null" id="svg_175" fill="#FBBC04" d="m1777.954261,80.667068l0,55.234479l44.010494,-31.865963l0,-16.995268c0,-15.763092 -18.638258,-24.749409 -31.686975,-15.295722"/>
   <path stroke="null" id="svg_176" fill="#EA4335" d="m1672.330527,135.901548l0,-55.234199l52.812109,38.239679l52.811625,-38.239679l0,55.234199l-52.811625,38.24024"/>
   <path stroke="null" id="svg_177" fill="#C5221F" d="m1628.320517,87.040317l0,16.995268l44.01001,31.865963l0,-55.234479l-12.322745,-8.922473c-13.070986,-9.453687 -31.687265,-0.46737 -31.687265,15.295722z"/>
  </g>
  <g stroke="null" id="svg_186">
   <rect stroke="null" x="40469.176632" y="4238.155854" transform="matrix(0.9570604600934959,0,0,0.8677763285353746,-37127.381332268706,-3376.5608927753055) " id="svg_182" rx="60" fill="#E14E1D" height="256" width="256"/>
   <path stroke="null" id="svg_183" d="m1650.006376,334.185934l8.240099,83.821119l105.956355,0l-3.55548,35.951973l-34.115377,8.363628l-34.051254,-8.351479l-2.276655,-23.084586l-30.68556,0l4.387835,44.500438l62.617978,15.769231l62.697031,-15.769231l8.405862,-85.095015l-111.420883,0l-2.797583,-28.385137l116.895365,0l0.093792,0l2.73815,-27.720941l-153.129674,0z" fill="#fff"/>
   <path stroke="null" id="svg_184" d="m1726.571213,334.185934l-76.564837,0l8.240099,83.821119l68.324738,0l0,-27.71504l-40.364886,0l-2.797583,-28.385137l43.16247,0l0,-27.720941z" fill="#EBEBEB"/>
   <path stroke="null" id="svg_185" d="m1726.571213,462.310506l-0.039239,0.012149l-34.051254,-8.351479l-2.276655,-23.084586l-30.685655,0l4.387931,44.500438l62.617978,15.769231l0.046896,-0.012149l0,-28.833604z" fill="#EBEBEB"/>
  </g>
  <g stroke="null" id="svg_193">
   <rect stroke="null" x="40902.420457" y="3995.55603" transform="matrix(1.0128638455187684,0,0,0.95706229575296,-39498.801286365604,-3771.357075440504) " id="svg_190" fill="#F0DB4F" rx="60" height="256" width="256"/>
   <path stroke="null" id="svg_191" fill="#323330" d="m1997.959176,257.385203l19.843016,-11.346931c3.828018,6.413274 7.310345,11.839818 15.66323,11.839818c8.006689,0 13.054802,-2.959237 13.054802,-14.470782l0,-78.285782l24.367478,0l0,78.611183c0,23.847121 -14.793889,34.702122 -36.378018,34.702122c-19.492261,0 -30.807368,-9.53904 -36.550914,-21.051542"/>
   <path stroke="null" id="svg_192" fill="#323330" d="m2084.122795,254.917896l19.839977,-10.854043c5.223339,8.059422 12.011552,13.979809 24.020066,13.979809c10.09724,0 16.535002,-4.769998 16.535002,-11.348845c0,-7.89385 -6.614001,-10.690386 -17.753477,-15.293855l-6.09035,-2.468264c-17.580278,-7.070776 -29.242392,-15.952314 -29.242392,-34.701165c0,-17.269232 13.924852,-30.426925 35.68218,-30.426925c15.49074,0 26.630216,5.099228 34.635892,18.420578l-18.971953,11.512502c-4.178063,-7.071733 -8.701513,-9.867312 -15.663939,-9.867312c-7.136639,0 -11.662114,4.276154 -11.662114,9.867312c0,6.907119 4.525476,9.703655 14.968102,13.980766l6.091363,2.46635c20.712053,8.388651 32.374167,16.939046 32.374167,36.180783c0,20.724227 -17.23084,32.071158 -40.379843,32.071158c-22.626365,0 -37.247055,-10.196542 -44.382681,-23.518849"/>
  </g>
  <defs>
   <linearGradient y2="1" x2="1" y1="0" x1="0" id="svg_197">
    <stop stop-color="#FF5C00"/>
    <stop stop-color="#FF0F00" offset="1"/>
   </linearGradient>
  </defs>
  <g stroke="null" id="svg_210">
   <rect stroke="null" x="41195.186766" y="4213.347593" transform="matrix(1.113310261973588,0,0,1.001705036296094,-43624.670837576035,-3939.3210844518617) " id="svg_199" fill="url(#svg_197)" rx="60" height="256" width="256"/>
   <path stroke="null" id="svg_200" fill="white" d="m2326.570145,350.068424c-11.117405,14.641722 -9.73267,33.689544 -1.262605,49.228994l0.622897,1.106884l0.420831,0.701194c0.077932,0.136232 0.168333,0.27046 0.24838,0.402685c0.147291,0.246419 0.294582,0.482822 0.420831,0.725234l0.810156,1.274169l0.463026,0.701194l0.940636,1.348295l0.420831,0.567967c0.420943,0.606032 0.896437,1.208056 1.363694,1.802067c0.010465,0.015026 0.025161,0.032055 0.037853,0.04708c0.07359,0.095162 0.155752,0.189322 0.210416,0.284484c0.40402,0.51087 0.841774,1.014727 1.262605,1.514578l0.467145,0.544928l1.146932,1.292199l0.437754,0.480818c0.521586,0.565963 1.05475,1.124915 1.59927,1.673849l0.033622,0.030051c0.021042,0.024041 0.042083,0.038065 0.063125,0.062106c0.527598,0.535912 1.069223,1.059804 1.624654,1.571675l0.521809,0.480818l1.298454,1.166986l0.53027,0.461786c0.583486,0.502856 1.176324,0.996697 1.778179,1.482523l0.336665,0.26445l1.614077,1.250128l0.669211,0.488832l1.346771,0.946611l0.719755,0.501854l2.058065,1.353304c0.052548,0.032055 0.098862,0.066113 0.151522,0.098167c0.483956,0.303517 0.97448,0.597016 1.466564,0.890516l0.6357,0.38766l2.297872,1.288193l0.6357,0.327558l1.725631,0.885507c0.315067,0.155264 0.637927,0.303517 0.952994,0.450767l1.233548,0.567967l0.283894,0.125213l0.505443,0.22338l1.956086,0.829412l0.415265,0.189322c0.754824,0.301513 1.515215,0.591006 2.281173,0.868478l0.555542,0.201343l2.152029,0.730243l0.269421,0.087148c0.794904,0.25243 1.595374,0.492839 2.399184,0.720226l0.578921,0.158269c0.841663,0.227387 1.631,0.498849 2.477115,0.644096c53.761753,9.005328 69.382609,-29.58636 69.382609,-29.58636c-13.115908,15.658653 -36.397452,19.785678 -58.454355,15.190857c-0.836096,-0.189322 -1.646586,-0.410699 -2.462642,-0.632076l-0.614547,-0.189322c-0.794904,-0.22338 -1.586467,-0.460784 -2.369124,-0.706202l-0.3262,-0.108184c-0.700272,-0.227387 -1.397204,-0.463789 -2.089683,-0.710209l-0.588941,-0.212361c-0.758164,-0.273465 -1.510762,-0.559953 -2.25668,-0.859463l-0.449777,-0.181309l-1.902647,-0.814386l-0.546635,-0.242413c-0.49431,-0.22338 -0.98528,-0.452771 -1.474023,-0.68717l-0.98194,-0.473806c-0.594508,-0.292498 -1.182335,-0.595013 -1.763483,-0.906543l-0.595621,-0.303517c-0.774864,-0.415708 -1.540821,-0.851449 -2.297872,-1.287191c-0.210416,-0.12321 -0.413038,-0.253431 -0.621227,-0.378645l-1.635453,-0.995695l-0.525482,-0.34058l-1.546388,-1.022741l-0.686912,-0.473806l-1.394978,-0.999702l-0.62234,-0.453772l-1.736764,-1.325256c-0.059005,-0.048082 -0.125804,-0.095162 -0.210416,-0.146249c-0.617887,-0.497847 -1.226868,-1.008717 -1.825829,-1.522592l-0.514349,-0.453772l-1.312704,-1.178005l-0.513459,-0.473806c-0.546969,-0.51087 -1.083585,-1.030754 -1.609847,-1.559655c-0.025272,-0.027046 -0.054664,-0.051087 -0.079936,-0.07613c-0.55621,-0.55795 -1.100619,-1.126918 -1.633003,-1.7039l-0.427177,-0.465793l-1.178439,-1.331266l-0.431408,-0.491837l-1.357348,-1.65682c-12.247415,-15.308257 -16.624505,-36.419791 -6.860218,-53.759606l-8.663669,10.088071zm34.511171,-12.3374c-8.0381,10.603048 -7.602796,24.7923 -1.331519,36.005085c1.048738,1.882705 2.23664,3.700098 3.555913,5.439759c1.204602,1.580991 2.540574,3.465198 4.139288,4.733357c0.578921,0.567967 1.184562,1.135934 1.803563,1.715921c0.155863,0.145247 0.31618,0.283483 0.475383,0.429731c0.601188,0.535912 1.215735,1.059804 1.843642,1.569672c0.025606,0.019032 0.048986,0.04107 0.075705,0.060102c0.708065,0.565963 1.430604,1.114898 2.169842,1.647805l0.488743,0.347592c0.734785,0.520887 1.486269,1.022741 2.251113,1.507566c0.02004,0.015026 0.041192,0.030051 0.063459,0.044075c0.33622,0.213363 0.683573,0.415708 1.026472,0.620055c0.16477,0.099169 0.31952,0.203346 0.48429,0.295503c0.548862,0.323551 1.105517,0.636083 1.668852,0.937596l0.236022,0.125213l1.472909,0.757289c0.172563,0.089152 0.348466,0.166283 0.525482,0.249425l1.052078,0.488832c0.053439,0.025043 0.105764,0.043073 0.155863,0.066113c0.709179,0.321547 1.422811,0.625064 2.153142,0.918564c0.155863,0.062106 0.315067,0.119203 0.475383,0.179305c0.583375,0.227387 1.172316,0.447762 1.767937,0.657119l0.757051,0.254433c0.537729,0.179305 1.077684,0.351598 1.62098,0.51688l0.731445,0.213363c0.772637,0.221377 1.536368,0.497847 2.342405,0.621057c41.50866,6.301726 51.094261,-22.985725 51.094261,-22.985725c-8.638174,11.398001 -25.365661,16.840264 -43.219818,12.595038c-0.789337,-0.189322 -1.573107,-0.397677 -2.350198,-0.625064c-0.238248,-0.066113 -0.47093,-0.136232 -0.706952,-0.189322c-0.551089,-0.163278 -1.098837,-0.336573 -1.643246,-0.518883l-0.743691,-0.253431c-0.595621,-0.189322 -1.184562,-0.425725 -1.766823,-0.653112c-0.160317,-0.063107 -0.320633,-0.119203 -0.47761,-0.185315c-0.732558,-0.288491 -1.455097,-0.596014 -2.167615,-0.92257c-0.366279,-0.16428 -0.725878,-0.336573 -1.086591,-0.507864l-0.626794,-0.294501c-0.463137,-0.22939 -0.920708,-0.465793 -1.373825,-0.710209l-0.328427,-0.189322c-0.559995,-0.301513 -1.114424,-0.612042 -1.662172,-0.931586c-0.169223,-0.099169 -0.33288,-0.189322 -0.50099,-0.306522l-1.077684,-0.653613c-0.761504,-0.484825 -1.508535,-0.986078 -2.24332,-1.503459l-0.505443,-0.363519c-7.813211,-5.653723 -14.008783,-13.378772 -16.952375,-22.139585c-3.087209,-9.08837 -2.420337,-19.284425 2.945819,-27.560512l-6.61195,8.497664zm29.019545,-9.217189c-4.739362,6.39218 -5.203612,14.329391 -1.893741,21.388005c3.467961,7.492253 10.574221,13.37126 18.867269,16.156501c0.341786,0.1173 0.684686,0.221477 1.052078,0.327558l0.455344,0.132526c0.48763,0.140038 0.974146,0.302916 1.477363,0.389964c22.920832,4.057607 29.136443,-10.777244 30.790822,-12.96036c-5.446314,7.185531 -14.597724,8.910367 -25.826571,6.413016c-0.883968,-0.198838 -1.862568,-0.492338 -2.736517,-0.768708c-1.098837,-0.357809 -2.175408,-0.767907 -3.22526,-1.228892c-1.998392,-0.881701 -3.893246,-1.941605 -5.656729,-3.163885c-10.069891,-6.986692 -16.313335,-20.312475 -9.755938,-31.165548"/>
   <path stroke="null" id="svg_201" fill="white" d="m2339.482429,464.202896l-1.552956,4.953431l1.552956,-4.951428l0,-0.002003zm7.988224,10.7513l-1.710824,-0.010017l1.710824,0.010017zm-0.420831,7.395588l-10.252474,0.034058l10.252474,-0.034058zm2.146351,-7.38457l-1.712939,-0.009015l1.712939,0.009015zm-1.224641,6.755499l1.788533,-6.128431l-1.788533,6.128431zm37.731755,-28.225043l-3.325458,14.073956l3.325458,-14.073956zm-8.554676,0l-2.524988,10.514898l2.524988,-10.514898z"/>
   <path stroke="null" id="svg_202" fill="white" d="m2385.113231,452.861592l-7.112939,0c-0.395225,0 -0.78711,0.284484 -0.870609,0.632076l-5.051089,21.030797c-0.083498,0.34659 -0.475383,0.630072 -0.868382,0.630072l-5.035502,0c-4.983177,0 -4.406482,-3.099275 -3.367764,-7.346505l0.032286,-0.128218l0.603414,-2.896931l0.260515,-1.193031l2.298986,-10.096185c0.079045,-0.347592 -0.179243,-0.634079 -0.574468,-0.634079l-7.302202,0c-0.201509,0.00601 -0.395225,0.071121 -0.552202,0.185315c-0.155863,0.114194 -0.267194,0.271462 -0.315067,0.44676l-3.289832,14.037894c-1.809129,7.429646 -1.329292,14.515708 8.50235,14.737084l0.283894,0.005009l15.429367,0c0.395225,0 0.784884,-0.283483 0.869495,-0.632076l6.653142,-28.147912c0.084612,-0.347592 -0.17479,-0.632076 -0.567788,-0.632076l-0.025606,0.002003zm28.381619,22.367072c0.396338,0 0.631247,0.283483 0.574468,0.632076l-0.690252,3.039173l0.115784,-3.671249zm-0.806037,6.712425l0.690252,-3.041176l-0.690252,3.041176zm-0.866155,0.639088l-13.110342,0.057097l13.110342,-0.057097z"/>
   <path stroke="null" id="svg_203" fill="white" d="m2394.465037,471.317006c-0.005567,-0.333568 0.415265,-0.905541 0.81049,-0.905541l-0.888422,-0.013022c-0.420831,3.624169 0.077932,0.918564 0.077932,0.918564zm4.895225,11.318265l-0.136937,0l0.136937,0zm14.134587,-7.406607c0.396338,0 0.631247,0.283483 0.574468,0.632076l-0.80381,3.533014l0.229342,-4.16509zm-10.767937,7.416624l-0.028946,0l0.028946,0zm-1.746784,-0.01202l-0.100198,0l0.100198,0zm-0.532162,0.002003l-0.16811,0l0.16811,0zm-0.519916,0l-0.146957,0l0.146957,0zm0.97192,-0.002003l-0.430851,0l0.430851,0z"/>
   <path stroke="null" id="svg_204" fill="white" d="m2402.700193,482.645288l-1.717838,0.005009l1.717838,-0.005009zm9.125804,-0.048082l-9.101311,0.050085l9.101311,-0.050085zm0.841663,-0.656117l0.578921,-2.545332l-0.578921,2.546334l0,-0.001002zm-12.40673,0.694182l-0.33288,0l0.375186,0l-0.042306,0zm-1.042058,0l-0.50433,0l0.50433,0zm0.541069,0l-0.420831,0l0.420831,0zm-104.081929,-11.243137l1.104849,-4.407502l-1.262605,5.036573l-0.147291,0.632076l0.307162,-1.264152l-0.002115,0.003005zm13.22813,-18.602664l-7.813545,0c-0.201954,0.007012 -0.396004,0.072123 -0.553872,0.186317c-0.157867,0.113193 -0.271314,0.268457 -0.323639,0.444757l-1.481482,5.86899c-0.024938,0.07613 -0.029057,0.156266 -0.012135,0.234399c0.016922,0.077131 0.054441,0.150256 0.109438,0.212361c0.054886,0.062106 0.125693,0.111189 0.206185,0.143244c0.080492,0.032055 0.168444,0.046078 0.256284,0.04107l7.874555,0c0.395559,0 0.786999,-0.284484 0.871165,-0.631074l1.430938,-5.883014c0.084166,-0.345588 -0.168333,-0.630072 -0.568122,-0.630072l0.004231,0.013022zm-1.700359,9.785656l-2.314795,9.539237l2.314795,-9.539237zm-22.697724,31.609804l6.443617,0.046078c-1.902425,0 -5.044186,-0.032055 -6.445732,-0.04708l0.002115,0.001002z"/>
   <path stroke="null" id="svg_205" fill="white" d="m2297.866557,462.575126l-1.106853,4.407502l1.106853,-4.407502zm8.775223,-0.631074l-7.87667,0c-0.201843,0.007012 -0.395893,0.072123 -0.553872,0.186317c-0.157867,0.113193 -0.271202,0.268457 -0.323639,0.444757l-2.209587,8.815004l-0.307274,1.265153l-2.104268,8.999318c-0.104317,0.419714 -0.230678,0.835422 -0.378859,1.244118c0,0 -1.473021,3.938704 -3.943568,3.894629l-2.451621,-0.04107c-0.201064,0.005009 -0.395114,0.067114 -0.553983,0.178303c-0.158981,0.111189 -0.274431,0.26445 -0.329762,0.438747l-1.630888,6.177515c-0.025829,0.07613 -0.03095,0.156266 -0.015141,0.233397c0.015809,0.078133 0.052214,0.151257 0.106098,0.213363c0.053773,0.062106 0.123577,0.112191 0.203402,0.145247c0.079713,0.033056 0.167108,0.048082 0.254837,0.045077l6.445621,0.04708c6.178427,0 9.433968,-3.081245 11.523541,-11.942327l4.734797,-19.691518c0.084166,-0.345588 -0.172563,-0.630072 -0.568122,-0.630072l-0.021042,-0.023039zm111.871872,20.331607c-0.395225,0 -0.631247,-0.283483 -0.567788,-0.632076l5.923924,-24.966496l-5.356136,25.598572zm8.232929,-0.634079l2.399184,-10.656138l-2.399184,10.656138z"/>
   <path stroke="null" id="svg_206" fill="white" d="m2418.031589,481.960122c-0.047872,-0.174297 -0.02004,-0.601023 0.063459,-0.947613l2.811108,-11.852174l-2.962519,12.483248c-0.084612,0.348593 0.172563,0.632076 0.567788,0.632076l0.720312,0c-0.395225,0 -1.153389,-0.142242 -1.200148,-0.315537zm8.249629,0.173295c-0.214869,0.07613 -0.715858,0.142242 -1.111084,0.142242l0.719198,0c0.201509,-0.007012 0.394112,-0.073124 0.549975,-0.187319c0.155863,-0.114194 0.264968,-0.271462 0.31284,-0.44676l0.143617,-0.632076c-0.077932,0.347592 -0.420831,1.046782 -0.631247,1.123913l0.0167,0zm1.662172,-5.819906l1.058758,-4.703005l-1.058758,4.703005zm23.375062,-17.964578l0.3262,1.212063c0.091291,0.34659 -0.159203,0.628069 -0.553315,0.630072"/>
   <path stroke="null" id="svg_207" fill="white" d="m2426.889085,481.009504l1.052078,-4.695993l-1.052078,4.695993zm24.10762,-23.925725l0.321747,1.242114l-0.321747,-1.242114zm-21.994558,14.526726l0.290574,-1.25714l1.13001,-4.762106l-1.279193,5.392178l-0.14139,0.625064l0,0.002003zm-5.035502,-15.344118l-0.246042,1.040772l-2.812222,11.853176l2.963632,-12.483248l0.094631,-0.408696l0,-0.002003z"/>
   <path stroke="null" id="svg_208" fill="white" d="m2451.646879,459.560995l-0.3262,-1.212063l-0.483177,-1.893223c-0.640153,-2.234804 -2.517195,-3.528005 -6.59525,-3.528005l-18.771524,-0.011019c-0.201509,0.00601 -0.394112,0.071121 -0.551089,0.185315c-0.155863,0.114194 -0.267194,0.271462 -0.315067,0.44676l-0.290574,1.237106l-0.420831,1.86818l-5.77474,24.336424c-0.084612,0.348593 -0.111331,0.757289 -0.063459,0.946611c0.048986,0.189322 0.806037,0.316539 1.200148,0.316539l5.933944,0c0.395225,0 0.893988,-0.065111 1.111084,-0.142242c0.217096,-0.078133 0.534389,-0.757289 0.631247,-1.124915l2.252227,-10.024062l2.409203,-10.156287c0.083498,-0.34659 0.473157,-0.628069 0.867269,-0.630072l18.671326,-0.008014c0.394112,0 0.644607,-0.283483 0.553315,-0.630072l-0.037853,0.023039zm24.038595,-10.96867l-1.437284,0.005009l-5.976249,0c-0.219322,0.01202 -0.431964,0.066113 -0.626794,0.158269c-0.193716,0.092157 -0.362939,0.220375 -0.49765,0.375639l-13.214993,17.419651c-0.222662,0.2935 -0.47761,0.250426 -0.567788,-0.09416l-0.973033,-3.838534c-0.052326,-0.175298 -0.16477,-0.331564 -0.32286,-0.444757c-0.15809,-0.113193 -0.351806,-0.178303 -0.554429,-0.185315l-8.494557,0c-0.396338,0 -0.631247,0.278474 -0.522143,0.621057l3.787482,12.000426c0.109104,0.34058 0.115784,0.902536 0.021153,1.249126l-1.683325,5.807886c-0.028946,0.074126 -0.036739,0.153261 -0.022266,0.231394c0.014473,0.078133 0.050099,0.151257 0.103538,0.213363c0.053439,0.062106 0.123577,0.111189 0.203736,0.143244c0.080158,0.032055 0.16811,0.045077 0.256061,0.038065l8.416626,0c0.396338,0 0.80047,-0.283483 0.897328,-0.625064l1.683325,-5.806884c0.131371,-0.408696 0.338446,-0.795354 0.610094,-1.142945l21.476868,-25.623615c0.238248,-0.284484 0.110218,-0.514876 -0.286121,-0.511871l-2.251113,0.014024l-0.025606,-0.004007zm-67.500001,15.027579c-0.050099,0.378645 -0.445324,0.663129 -0.841663,0.663129l-10.774617,0c-0.371846,0 -0.561108,-0.227387 -0.50433,-0.511871l0.007793,-0.051087l0.048986,-0.16428c1.052078,-2.461189 3.125062,-4.076939 7.061727,-4.076939c4.434315,0 5.299357,1.95032 4.998763,4.141049l0.00334,0zm-3.160688,-11.18604c-13.825087,0 -17.101559,7.550853 -18.938521,15.171824c-1.839189,7.768223 -1.679985,15.033589 12.626052,15.033589l2.267813,0l1.746784,-0.00601l9.103538,-0.049084c0.200396,-0.008014 0.390772,-0.074126 0.545522,-0.188321c0.15475,-0.114194 0.263855,-0.27046 0.310614,-0.445759l1.382731,-6.081351c0.080158,-0.348593 -0.17813,-0.633078 -0.574468,-0.633078l-12.862073,0c-5.113434,0 -6.634216,-1.223082 -6.075334,-4.818201l20.560614,0c0.33622,-0.00601 0.641267,-0.189322 0.761504,-0.476812c0.021153,-0.051087 0.042306,-0.106181 0.050099,-0.161275c3.051583,-10.356628 2.176522,-17.337511 -10.900421,-17.337511l-0.004453,-0.008014zm-65.348752,11.14497l-0.193605,0.619054c0,0.002003 -1.552956,4.95243 -1.552956,4.95243l-1.553068,4.949425c-0.064461,0.175298 -0.186368,0.327558 -0.349357,0.438747c-0.1631,0.110188 -0.359711,0.174297 -0.563892,0.18231l-8.219681,0c-6.23309,0 -7.750421,-4.386466 -6.23309,-10.856479c1.515104,-6.617263 4.492764,-10.732268 10.626992,-11.147975c8.383783,-0.567967 10.05887,4.737063 8.038657,10.860486l0,0.002003zm5.635577,10.763321c0,0 3.871982,-8.463406 4.755727,-13.35373c1.199035,-6.546142 -2.440933,-16.037298 -16.50861,-16.037298c-13.987741,0 -20.06096,9.061424 -22.37787,18.934229c-2.314795,9.920887 0.719644,18.6237 14.625334,18.555584l21.224592,-0.070119c0.203513,-0.009015 0.39901,-0.074126 0.559884,-0.186317c0.160873,-0.113193 0.279107,-0.267455 0.338669,-0.442754l1.788422,-6.130435c0.028946,-0.074126 0.036739,-0.154263 0.02338,-0.231394c-0.01336,-0.078133 -0.048986,-0.151257 -0.102313,-0.213363c-0.053216,-0.063107 -0.122909,-0.112191 -0.202845,-0.144246c-0.079824,-0.032055 -0.167331,-0.046078 -0.254503,-0.040068l-3.423763,-0.019032c-0.336776,-0.002003 -0.52615,-0.196334 -0.488187,-0.453772c0.00835,-0.048082 0.021042,-0.095162 0.042083,-0.144246l0,-0.023039z"/>
   <path stroke="null" id="svg_209" fill="white" d="m2414.553608,468.679516c0,0.234399 -0.210416,0.423721 -0.47093,0.423721c-0.261628,0 -0.472044,-0.189322 -0.472044,-0.423721c0,-0.235401 0.210416,-0.424723 0.472044,-0.424723c0.260515,0 0.47093,0.189322 0.47093,0.424723z"/>
  </g>
  <g stroke="null" id="svg_228">
   <rect stroke="null" x="41182.020516" y="3945.248618" transform="matrix(1.0909889229348457,0,0,1.0240264365646785,-42696.48916863464,-4033.1142353279283) " id="svg_214" rx="60" fill="#242938" height="256" width="256"/>
   <path stroke="null" id="svg_215" d="m2326.408772,211.654158l26.762722,13.94724l40.471325,0l37.859498,-26.681009l16.971424,-41.840696l-39.165411,-44.265591l-11.096448,-24.861519l-54.17851,1.819081l0.652411,13.94683l-10.443928,18.19101l-16.318794,29.713151l-3.263802,24.861314l11.749514,35.170188z" fill="#ECEFF1"/>
   <path stroke="null" id="svg_216" d="m2436.72379,124.335423c-10.444037,-13.94724 -18.929749,-22.436112 -23.49881,-40.021206c-4.569062,-17.585094 1.305914,-12.733974 -2.610736,-27.893559c-1.958325,-7.882956 -5.222564,-13.340402 -8.485712,-17.585094c-3.91665,-4.244692 -8.485712,-6.670201 -11.097539,-7.276629c-5.873884,-3.031835 -19.58216,-7.882956 -36.553584,0.606428c-17.624599,8.489384 -15.666383,26.680804 -12.402362,63.670175c0,2.425509 -0.652957,5.457446 -1.958434,7.882956c-2.611064,5.457446 -7.180344,10.308055 -11.096885,14.553669c-4.56928,6.063261 -9.13856,12.127545 -12.402253,18.797029c-7.833082,13.94724 -15.013317,31.531822 -13.055101,38.20233c3.263802,-0.606224 44.387648,57.606607 44.387648,58.819054c2.610736,-0.606224 13.707185,-0.606224 23.49881,-0.606224c13.708276,-0.606224 21.540485,-1.212447 32.638025,1.212447c0,-1.818671 -0.653502,-3.638366 -0.653502,-5.457037c0,-3.638366 0.653502,-6.670508 1.305914,-10.915098c0.652411,-3.032142 1.305914,-6.063261 1.958325,-9.701626c-6.527387,5.457037 -18.277337,11.521321 -29.373786,13.339992c-9.791626,1.818671 -26.110638,-1.212447 -33.943938,-10.308874c0.653502,0 1.958325,0 2.611827,-0.606224c1.958325,-0.606224 3.91665,-1.212447 4.569062,-2.424895c1.958325,-3.032142 0.652411,-6.064285 -0.652411,-7.882956c-1.305914,-1.819695 -11.097212,-8.490203 -15.666492,-12.127545c-4.56928,-3.638366 -7.180344,-5.458061 -9.791298,-7.882956c0,0 -3.916541,-3.638366 -5.222128,-4.851837c-1.305477,-1.212447 -1.958216,-2.424895 -2.610955,-3.032142c-1.305477,-3.031118 -1.958325,-6.669484 -1.305477,-11.520297c0.652739,-6.670508 3.263693,-12.128569 6.527496,-18.19183c1.305477,-2.425919 4.56928,-7.276732 4.56928,-7.276732c0,0 -11.096776,25.468562 -5.222018,33.351517c0,0 0.652739,-7.882956 3.263802,-15.765911c1.958216,-5.458061 5.222018,-13.341016 9.138451,-17.585606c3.916541,-4.24459 13.707512,-20.010501 14.361014,-29.712741c0,-4.244692 0.652411,-8.489384 0.652411,-11.521219c-2.610736,-2.425611 43.082062,-8.489384 45.692798,-1.819183c0.652411,2.425509 9.791626,24.25509 15.013099,35.776412c2.610736,5.458061 5.874975,10.308874 7.8333,16.372135c1.958325,6.670508 3.263148,15.765911 3.263148,24.862338c0,1.818671 0,4.850813 -0.652411,7.882956c1.305914,0 26.763049,-25.468562 -3.263148,-46.691509c0,0 18.276246,7.882956 18.929749,23.648867c0.652411,12.733769 -5.222564,23.042643 -6.527387,24.861314c0.652411,0 13.707185,5.458061 14.359596,5.458061c2.611827,0 7.8333,-1.819695 7.8333,-1.819695c0.653502,-1.818671 2.610736,-6.670508 2.610736,-8.489179c4.570153,-13.94724 -6.527387,-36.382635 -16.971424,-50.329875l0,0z" fill="#263238"/>
   <path stroke="null" id="svg_217" d="m2353.823906,84.314217c4.686888,0 8.485712,-5.429798 8.485712,-12.127647c0,-6.697952 -3.798823,-12.127647 -8.485712,-12.127647c-4.685797,0 -8.485712,5.429695 -8.485712,12.127647c0,6.69785 3.799914,12.127647 8.485712,12.127647z" fill="#ECEFF1"/>
   <path stroke="null" id="svg_218" d="m2383.197691,85.526972c6.129176,0 11.097539,-6.244206 11.097539,-13.946728c0,-7.702624 -4.968364,-13.94683 -11.097539,-13.94683c-6.128085,0 -11.096448,6.244206 -11.096448,13.94683c0,7.702522 4.968364,13.946728 11.096448,13.946728z" fill="#ECEFF1"/>
   <path stroke="null" id="svg_219" d="m2358.565344,73.016441c-0.542221,-3.987047 -3.01222,-6.980788 -5.51604,-6.686893c-2.502729,0.293998 -4.09339,3.764424 -3.550078,7.751471c0.542221,3.986945 3.011129,6.980788 5.514949,6.68679c2.50382,-0.293998 4.09339,-3.764424 3.551169,-7.751368z" fill="#212121"/>
   <path stroke="null" id="svg_220" d="m2382.54528,81.888708c3.605718,0 6.527387,-3.529307 6.527387,-7.882956c0,-4.353648 -2.921668,-7.883058 -6.527387,-7.883058c-3.604627,0 -6.527387,3.52941 -6.527387,7.883058c0,4.353648 2.922759,7.882956 6.527387,7.882956z" fill="#212121"/>
   <path stroke="null" id="svg_221" d="m2469.361815,207.409568c-2.610736,-1.212447 -7.180889,-3.032142 -11.097539,-8.489179c-1.957234,-3.032142 -1.304823,-11.521321 -4.569062,-15.159687c-1.958325,-2.424895 -4.569062,-1.212447 -5.221473,-1.212447c-5.874975,1.212447 -19.583251,9.701626 -28.721374,0c-1.305914,-1.212447 -3.264239,-3.032142 -6.527387,-3.032142c-3.264239,0 -4.569062,1.212447 -5.874975,3.638366c-1.305914,2.425919 -1.305914,4.24459 -1.305914,10.308874c0,4.850813 0,10.30785 -0.652411,14.55244c-1.305914,10.308874 -3.263148,16.373159 -3.263148,22.436419c0,6.670508 1.957234,10.915098 4.569062,12.733769c1.958325,1.819695 5.221473,3.032142 12.402362,3.032142c7.179798,0 11.74886,-2.424895 16.319012,-6.670508c3.263148,-3.031118 5.873884,-4.24459 15.013099,-10.30785c7.179798,-4.24459 18.277337,-9.70265 20.234572,-11.521321c1.305914,-1.212447 3.264239,-1.819695 3.264239,-5.458061c0,-3.031118 -2.610736,-4.24459 -4.569062,-4.850813l0,0z" fill="#FFC107"/>
   <path stroke="null" id="svg_222" d="m2338.158287,209.229263c-6.527605,-9.70265 -7.180344,-11.521321 -11.749623,-17.585606c-3.916541,-6.063261 -12.402253,-17.584582 -17.624271,-17.584582c-3.916541,0 -5.874866,1.818671 -8.485821,4.24459c-2.611064,2.424895 -5.222018,7.882956 -9.791298,10.915098c-3.916541,3.031118 -15.013317,2.424895 -17.624381,6.063261c-2.611064,3.638366 2.611064,9.096427 2.611064,18.19183c0,3.638366 -3.263802,6.063261 -3.916541,8.489179c-0.652739,3.032142 -1.305586,4.850813 0,7.276732c2.610955,3.638366 5.874757,4.850813 28.068418,9.095403c11.749514,2.425919 22.84629,8.489179 30.026634,9.096427c7.180234,0.606224 19.582378,0 19.582378,-16.373159c0.653502,-9.701626 -5.221473,-12.127545 -11.096557,-21.829172z" fill="#FFC107"/>
   <path stroke="null" id="svg_223" d="m2350.560758,99.473802c-3.91665,-2.425509 -7.180889,-4.85112 -7.180889,-8.489384c0,-3.638264 2.611827,-4.851018 6.528478,-7.882956c0.652411,-0.606428 7.832209,-6.670201 15.013099,-6.670201c7.179798,0 15.66551,4.244692 18.929749,5.457446c5.874975,1.212755 11.74886,2.425509 11.096448,6.670201c-0.652411,6.063773 -1.304823,7.276629 -7.8333,10.308465c-4.569062,1.212755 -13.054773,7.882956 -18.929749,7.882956c-2.610736,0 -6.527387,0 -9.138123,-0.606326c-1.958325,-0.606428 -5.222564,-3.638264 -8.485712,-6.670201l0,0z" fill="#FFC107"/>
   <path stroke="null" id="svg_224" d="m2349.254844,94.622784c1.305914,1.212755 3.264239,2.425509 5.222564,3.031835c1.304823,0.606428 3.263148,1.212857 3.263148,1.212857c2.611827,0 4.570153,0 5.874975,0c3.264239,0 7.8333,-1.212755 12.402362,-3.638366c4.569062,-1.819081 5.222564,-3.031937 8.485712,-4.244692c3.264239,-1.819081 6.527387,-3.638264 5.222564,-4.24459c-1.305914,-0.606428 -2.611827,0 -7.180889,2.425509c-3.91665,2.425509 -7.179798,3.638264 -11.096448,5.457446c-1.958325,0.606326 -4.569062,1.819081 -6.527387,1.819081c-1.958325,0 -3.91665,0 -5.874975,0c-1.958325,0 -3.264239,-0.606326 -5.222564,-1.212755c-1.304823,-0.606326 -1.958325,-1.212755 -2.610736,-1.212755c-1.304823,-0.606326 -3.91665,-3.031937 -5.221473,-3.638264c0,0 -1.305914,0 -0.653502,0.606326c1.958325,1.819183 2.611827,2.425611 3.91665,3.638366z" fill="#634703"/>
   <path stroke="null" id="svg_225" d="m2368.838095,81.28228c0.652411,1.212755 1.958325,1.212755 2.610736,1.819183c0.652411,0.606326 1.304823,0.606326 1.304823,0.606326c0.653502,-0.606326 0,-1.819081 -0.652411,-1.819081c0,-1.212755 -3.263148,-1.212755 -3.263148,-0.606428l0,0z" fill="#634703"/>
   <path stroke="null" id="svg_226" d="m2358.394058,82.495034c0,0.606428 1.304823,1.212755 1.304823,0.606428c0.653502,-0.606428 1.305914,-1.212755 1.958325,-1.212755c1.305914,-0.606428 0.652411,-1.212755 -1.304823,-1.212755c-1.305914,0.606326 -1.305914,1.212755 -1.958325,1.819081l0,0z" fill="#634703"/>
   <path stroke="null" id="svg_227" d="m2421.710691,189.824986c0,0.606224 0,1.212447 0,1.818671c1.305914,2.425919 4.569062,3.032142 7.179798,3.032142c3.91665,0 7.8333,-2.425919 9.791626,-4.850813c0,-0.606224 0.652411,-1.213471 1.305914,-1.819695c1.304823,-1.818671 1.958325,-3.031118 2.610736,-3.638366c0,0 -0.652411,-0.606224 -0.652411,-1.212447c-0.653502,-1.212447 -2.611827,-2.425919 -5.222564,-3.032142c-1.958325,-0.606224 -5.221473,-1.212447 -6.527387,-1.212447c-5.874975,-0.606224 -9.138123,1.212447 -11.096448,3.032142c0,0 0.652411,0 0.652411,0.606224c1.305914,1.212447 1.958325,2.425919 1.958325,4.24459c0.652411,1.212447 0,1.818671 0,3.032142l0,0z" fill="#455A64"/>
  </g>
  <g stroke="null" id="svg_235">
   <rect stroke="null" x="41639.157116" y="4068.418229" transform="matrix(1.146792665682564,0,0,1.0909908648133795,-45093.12662164213,-4308.8252788779355) " id="svg_232" rx="60" fill="#242938" height="256" width="256"/>
   <path stroke="#fff" id="svg_233" d="m2907.207373,205.060213l-204.129094,0c-6.333507,0 -11.467927,4.884584 -11.467927,10.909909l0,106.917105c0,6.025543 5.13442,10.909909 11.467927,10.909909l204.129094,0c6.333736,0 11.467927,-4.884366 11.467927,-10.909909l0,-106.917105c0,-6.025324 -5.134191,-10.909909 -11.467927,-10.909909z" stroke-width="10"/>
   <path stroke="null" id="svg_234" d="m2720.280169,306.522363l0,-74.187379l22.935853,0l22.935853,27.274772l22.935853,-27.274772l22.935853,0l0,74.187379l-22.935853,0l0,-42.548644l-22.935853,27.274772l-22.935853,-27.274772l0,42.548644l-22.935853,0zm143.349083,0l-34.40378,-36.002699l22.935853,0l0,-38.18468l22.935853,0l0,38.18468l22.935853,0l-34.40378,36.002699z" fill="#fff"/>
  </g>
  <g stroke="null" id="svg_242">
   <rect stroke="null" x="42017.195649" y="4047.377053" transform="matrix(1.1244709927228016,0,0,1.0351872285437345,-44088.76421814924,-4080.0111966920085) " id="svg_239" rx="60" fill="#242938" height="256" width="256"/>
   <path stroke="null" id="svg_240" d="m3293.152819,141.993137c5.531273,-2.914673 12.734634,-2.927613 18.260284,0c27.799172,14.460634 55.60734,28.899115 83.402014,43.368548c5.22879,2.710948 8.72477,8.067214 8.67192,13.612712l0,87.002518c0.039356,5.77531 -3.802961,11.259731 -9.318491,13.908776c-27.70809,14.381856 -55.402686,28.780275 -83.106278,43.162131c-5.64372,2.970987 -12.992138,2.742211 -18.461565,-0.473081c-8.306467,-4.432672 -16.627553,-8.84464 -24.935032,-13.273171c-1.697839,-0.931669 -3.611463,-1.672863 -4.810037,-3.188377c1.059364,-1.314688 2.954323,-1.478247 4.493836,-2.052776c3.466857,-1.015519 6.652483,-2.644903 9.836985,-4.225634c0.806246,-0.507242 1.789033,-0.312627 2.561545,0.140785c7.103283,3.749448 14.144721,7.608626 21.271618,11.321843c1.520285,0.808481 3.059686,-0.265008 4.359574,-0.931669c27.189709,-14.147904 54.413151,-28.240943 81.599487,-42.392987c1.007526,-0.446166 1.564139,-1.430629 1.482053,-2.446147c0.019116,-28.700566 0.004498,-57.405273 0.01012,-86.106046c0.114696,-1.152474 -0.609463,-2.211988 -1.741806,-2.684033c-27.611385,-14.315397 -55.210401,-28.65243 -82.817289,-42.97145c-0.979414,-0.619974 -2.271431,-0.621526 -3.25197,-0.004658c-27.608012,14.323679 -55.200506,28.674169 -82.807843,42.988531c-1.128069,0.472563 -1.885063,1.514997 -1.750801,2.671611c0.004723,28.700773 0,57.40548 0,86.110186c-0.098054,1.015519 0.501064,1.979278 1.501394,2.416127c7.367084,3.845721 14.743839,7.664526 22.115646,11.497825c4.153121,2.056917 9.25226,3.280508 13.827957,1.703918c4.03775,-1.333321 6.868044,-5.127282 6.791018,-9.073416c0.038232,-28.532866 -0.019116,-57.069872 0.028674,-85.598804c-0.100528,-1.266759 1.204196,-2.313333 2.542092,-2.193872c3.54006,-0.022257 7.084167,-0.043892 10.624002,0.008799c1.477555,-0.031056 2.494077,1.333011 2.311912,2.609086c-0.014618,28.713609 0.038232,57.427633 -0.023614,86.140621c0.008996,7.653139 -3.406023,15.980185 -11.094818,19.724457c-9.472094,4.516522 -21.179861,3.558974 -30.537709,-0.77225c-8.101139,-3.722533 -15.832102,-8.115868 -23.789421,-12.103409c-5.529811,-2.634551 -9.353125,-8.140712 -9.314218,-13.911881l0,-87.003553c-0.058023,-5.6603 3.577954,-11.11377 8.968556,-13.784864c27.703479,-14.392933 55.402348,-28.797252 83.100206,-43.196396z" fill="#81CD39"/>
   <path stroke="null" id="svg_241" d="m3317.322198,202.260392c12.082441,-0.716143 25.017231,-0.424013 35.889741,5.055233c8.418914,4.199651 13.085469,13.012821 13.233899,21.622473c-0.235014,1.160445 -1.554019,1.801226 -2.758327,1.721516c-3.504976,-0.004141 -7.012201,0.044513 -10.517177,-0.021739c-1.487675,0.052795 -2.351269,-1.209099 -2.537931,-2.419233c-1.007526,-4.120045 -3.448753,-8.199718 -7.659896,-10.187278c-6.465708,-2.979269 -13.961432,-2.829167 -21.011865,-2.767055c-5.146704,0.250515 -10.68135,0.661485 -15.042048,3.447173c-3.34755,2.110747 -4.364072,6.371577 -3.169884,9.803223c1.12672,2.463746 4.215642,3.258769 6.744577,3.991682c14.560775,3.506179 29.990766,3.156286 44.273796,7.770115c5.913593,1.880935 11.697872,5.538252 13.72192,11.237993c2.648129,7.639682 1.487675,16.770033 -4.416922,22.902482c-4.787997,5.046538 -11.760842,7.793925 -18.715695,9.285629c-9.252147,1.899569 -18.854005,1.948222 -28.250085,1.104545c-8.834969,-0.927528 -18.029768,-3.064154 -24.849684,-8.605511c-5.832631,-4.662483 -8.680916,-11.927427 -8.398674,-18.937715c0.067468,-1.184254 1.348241,-2.010334 2.580661,-1.913026c3.529714,-0.02588 7.060553,-0.035196 10.590268,0.005176c1.411211,-0.093167 2.455845,1.028976 2.528935,2.252567c0.649944,3.924395 2.252315,8.04444 5.970941,10.370506c7.174125,4.261866 16.177764,3.969943 24.393149,4.08899c6.806423,-0.27743 14.447203,-0.36128 20.000966,-4.503064c2.930371,-2.362297 3.798463,-6.314642 3.006835,-9.714197c-0.857971,-2.870574 -4.120062,-4.208036 -6.921119,-5.082769c-14.374113,-4.185262 -29.977272,-2.666642 -44.21195,-7.400553c-5.779781,-1.8799 -11.368402,-5.434733 -13.588107,-10.900522c-3.097918,-7.735954 -1.678835,-17.305225 4.844221,-23.230533c6.360008,-5.89446 15.540189,-8.164418 24.269457,-8.976626l0,0.000518" fill="#81CD39"/>
  </g>
  <defs>
   <linearGradient y2="0.131417" x2="0.187929" y1="0.808932" x1="0.76155" id="svg_248">
    <stop stop-color="#5391FE"/>
    <stop stop-color="#3E6DBF" offset="1"/>
   </linearGradient>
   <linearGradient y2="0.803826" x2="0.754096" y1="0.113801" x1="0.176982" id="svg_247">
    <stop stop-color="#5391FE"/>
    <stop stop-color="#3E6DBF" offset="1"/>
   </linearGradient>
  </defs>
  <g stroke="null" id="svg_257">
   <rect stroke="null" x="42378.273958" y="4080.358912" transform="matrix(1.113310261973588,0,0,1.0575086900421615,-43624.670837576035,-4173.804604852106) " id="svg_250" fill="#242938" rx="60" height="256" width="256"/>
   <path stroke="null" id="svg_251" fill="url(#svg_248)" d="m3596.028175,356.14693c-1.40522,0.040185 -2.801423,-0.227364 -4.080727,-0.780441c-1.279193,-0.554135 -2.407311,-1.380049 -3.297291,-2.414292c-0.889869,-1.118844 -1.502078,-2.41535 -1.791205,-3.790111c-0.289127,-1.375819 -0.247489,-2.796053 0.121573,-4.153894l33.368024,-138.457604c0.741019,-2.869973 2.446499,-5.432422 4.858041,-7.299348c2.411541,-1.866926 5.397773,-2.93649 8.506692,-3.046788l166.259417,0c1.404998,-0.038388 2.801089,0.229691 4.079169,0.783402c1.279193,0.553817 2.40809,1.378568 3.298738,2.41112c0.889535,1.11969 1.501856,2.415561 1.790203,3.791063c0.289461,1.375502 0.248268,2.795313 -0.120238,4.153577l-33.391515,138.465112c-0.741465,2.870079 -2.447056,5.432422 -4.858486,7.298925c-2.41143,1.86756 -5.397328,2.936702 -8.506804,3.046683l-166.235592,0l0,-0.007403z" clip-rule="evenodd" fill-rule="evenodd"/>
   <path stroke="null" id="svg_252" fill="url(#svg_247)" d="m3633.712836,197.983921l166.259862,0c1.164523,-0.045261 2.323479,0.176498 3.377783,0.646455c1.055418,0.469957 1.976126,1.174258 2.684191,2.053576c0.708065,0.879213 1.182335,1.907428 1.383845,2.997826c0.201509,1.090291 0.123577,2.210616 -0.227115,3.266327l-33.391515,138.457709c-0.657966,2.47034 -2.134216,4.675246 -4.211653,6.290062c-2.076324,1.613758 -4.64473,2.550711 -7.324468,2.673382l-166.235926,0c-1.164523,0.045473 -2.323256,-0.175546 -3.378451,-0.646138c-1.055084,-0.469534 -1.97568,-1.173835 -2.683746,-2.053682c-0.708065,-0.87879 -1.182781,-1.907746 -1.384179,-2.998037c-0.201398,-1.090291 -0.123355,-2.210193 0.227338,-3.265587l33.391849,-138.457709c0.655517,-2.46812 2.12787,-4.671122 4.200297,-6.28488c2.072427,-1.613653 4.63549,-2.552826 7.311888,-2.679304l0,0z" clip-rule="evenodd" fill-rule="evenodd"/>
   <path stroke="null" id="svg_253" fill="#2C5591" d="m3698.318565,318.045949l40.435429,0c2.290079,0.092003 4.454354,1.021553 6.040821,2.593011c1.586467,1.572515 2.472662,3.665325 2.472662,5.842736c0,2.17741 -0.886195,4.27022 -2.472662,5.842736c-1.586467,1.571458 -3.750742,2.501008 -6.040821,2.593011l-40.435429,0c-2.290079,-0.092003 -4.454354,-1.021553 -6.040821,-2.593011c-1.586467,-1.572515 -2.472662,-3.665325 -2.472662,-5.842736c0,-2.17741 0.886195,-4.27022 2.472662,-5.842736c1.586467,-1.571458 3.750742,-2.501008 6.040821,-2.593011l0,0z" clip-rule="evenodd" fill-rule="evenodd"/>
   <path stroke="null" id="svg_254" fill="#2C5591" d="m3724.548155,280.543518c-1.157843,1.849583 -2.769916,3.40412 -4.699283,4.531425l-75.044237,51.164385c-2.089795,1.291218 -4.621574,1.771327 -7.073083,1.340921c-2.451509,-0.430406 -4.635713,-1.737487 -6.102165,-3.652635c-1.466452,-1.915148 -2.103154,-4.29137 -1.778958,-6.63904c0.324307,-2.347669 1.584797,-4.488067 3.521512,-5.979154l67.674234,-46.550475l0,-0.951758l-42.518989,-42.939929c-1.585242,-1.811407 -2.382484,-4.129254 -2.229181,-6.480308c0.153303,-2.350948 1.245683,-4.557651 3.054144,-6.1694c1.80835,-1.611749 4.196289,-2.506824 6.676076,-2.502594c2.480344,0.00423 4.863941,0.907554 6.666391,2.525437l51.026349,51.556721c1.370485,1.451959 2.196561,3.29414 2.345745,5.239956c0.149184,1.944758 -0.385205,3.881057 -1.518555,5.506448z" clip-rule="evenodd" fill-rule="evenodd"/>
   <path stroke="null" id="svg_255" fill="white" d="m3722.646621,278.761616c-1.152276,1.85064 -2.762123,3.405178 -4.690376,4.531425l-75.020412,51.171788c-2.090463,1.263723 -4.60955,1.723739 -7.044248,1.284873c-2.434698,-0.437809 -4.601979,-1.741717 -6.060304,-3.645232c-1.458325,-1.902458 -2.098033,-4.262818 -1.788867,-6.597797c0.309055,-2.336037 1.543827,-4.471147 3.452709,-5.972809l67.681805,-46.549418l0,-0.95916l-42.518655,-42.9633c-1.60005,-1.810349 -2.409203,-4.134119 -2.261133,-6.493738c0.148182,-2.359513 1.242343,-4.575629 3.057484,-6.192454c1.815252,-1.616931 4.213657,-2.5119 6.702128,-2.500797c2.488471,0.010998 4.878414,0.927224 6.677524,2.560229l51.017443,51.556721c1.377165,1.454074 2.203241,3.303657 2.346858,5.254761c0.14473,1.951104 -0.401905,3.892689 -1.551955,5.514908l0,0z" clip-rule="evenodd" fill-rule="evenodd"/>
   <path stroke="null" id="svg_256" fill="white" d="m3697.206368,317.050833l40.435429,0c2.2333,0 4.374196,0.842834 5.953983,2.342382c1.578674,1.499547 2.465982,3.534194 2.465982,5.654499c0,2.121362 -0.887308,4.156009 -2.465982,5.655556c-1.579787,1.499547 -3.720683,2.342382 -5.953983,2.342382l-40.435429,0c-2.2333,0 -4.375309,-0.842834 -5.953983,-2.342382c-1.578674,-1.499547 -2.465982,-3.534194 -2.465982,-5.655556c0,-2.120305 0.887308,-4.154952 2.465982,-5.654499c1.578674,-1.499547 3.720683,-2.342382 5.953983,-2.342382l0,0z" clip-rule="evenodd" fill-rule="evenodd"/>
  </g>
  <g stroke="null" id="svg_266">
   <rect stroke="null" x="42691.368595" y="4131.69252" transform="matrix(1.113310261973588,0,0,1.0575086900421615,-43624.670837576035,-4173.804604852106) " id="svg_261" fill="#242938" rx="60" height="256" width="256"/>
   <path stroke="null" id="svg_263" fill="#050606" d="m4004.913787,226.167276c-1.156729,0.032783 -2.402524,0.421946 -3.816428,1.437154c-3.464622,-1.215077 -6.822365,-1.637023 -9.824963,0.836489c-4.638051,-0.546732 -6.145473,0.582687 -7.286616,1.903516c-1.017566,-0.020093 -7.617269,-0.953873 -10.643246,3.155606c-7.605022,-0.818512 -10.010886,4.072466 -7.287729,8.630328c-1.550841,2.191158 -3.162914,4.350591 0.47093,8.524578c-1.28476,2.323347 -0.488743,4.84339 2.539461,7.896417c-0.799357,3.264529 0.770411,5.569898 3.587086,7.366606c-0.527709,4.469032 4.50334,7.070503 6.006309,7.994766c0.576695,2.603586 1.77907,5.063352 7.528204,6.420135c0.942974,3.885287 4.398689,4.55469 7.743073,5.367914c-11.054058,5.850138 -20.531668,13.541399 -20.465983,32.418775l-1.62098,2.630024c-12.676151,7.015513 -24.077561,29.56054 -6.246784,47.887166c1.166749,5.736985 3.117269,9.855981 4.856259,14.417016c2.602919,18.376329 19.579788,26.980219 24.056408,27.9986c6.562964,4.547287 13.551213,8.861923 23.00767,11.886398c8.914275,8.369124 18.573355,11.557512 28.284761,11.55434l0.427511,0c9.713632,0.00423 19.372712,-3.185216 28.284761,-11.55434c9.457571,-3.02236 16.444706,-7.33911 23.00767,-11.886398c4.477734,-1.018381 21.455715,-9.622272 24.055295,-28.000715c1.738991,-4.55892 3.691737,-8.677916 4.858486,-14.414901c17.829664,-18.326626 6.428253,-40.874826 -6.249011,-47.891396l-1.618753,-2.626852c0.064572,-18.876319 -9.414152,-26.571809 -20.468209,-32.418775c3.344384,-0.814282 6.800099,-1.486857 7.746413,-5.367914c5.745794,-1.358899 6.947056,-3.816549 7.524864,-6.421193c1.501856,-0.927435 6.535131,-3.524676 6.007422,-7.997938c2.815562,-1.793535 4.385329,-4.099961 3.587086,-7.366606c3.028204,-3.049855 3.823107,-5.570956 2.537234,-7.89536c3.634958,-4.169757 2.021771,-6.332362 0.47093,-8.521405c2.722044,-4.561035 0.320633,-9.449898 -7.287729,-8.631386c-3.025977,-4.107364 -9.624567,-3.173584 -10.641019,-3.155606c-1.14337,-1.319771 -2.651905,-2.44919 -7.288842,-1.902458c-3.001484,-2.472455 -6.361455,-2.050509 -9.824963,-0.835432c-4.111455,-2.953622 -6.835725,-0.58586 -9.942974,0.30985c-4.979837,-1.482627 -6.118753,0.546732 -8.563583,1.373704c-5.430727,-1.044819 -7.081767,1.228825 -9.685799,3.62937l-3.028204,-0.053933c-8.190624,4.390776 -12.258659,13.338357 -13.699283,17.937462c-1.445077,-4.60122 -5.503093,-13.547744 -13.692603,-17.937462l-3.028204,0.051818c-2.607373,-2.400545 -4.257298,-4.672073 -9.686913,-3.627255c-2.445943,-0.826972 -3.583746,-2.855273 -8.565809,-1.373704c-2.041811,-0.587975 -3.917739,-1.810455 -6.126546,-1.748062l0.00334,0.001058z"/>
   <path stroke="null" id="svg_264" fill="#63C54D" d="m3988.771011,245.496314c21.730703,10.193326 34.360985,18.444009 41.283548,25.470097c-3.543667,12.928044 -22.033301,13.517076 -28.795547,13.154351c1.386071,-0.58586 2.540574,-1.289103 2.950272,-2.366704c-1.696685,-1.096637 -7.710787,-0.115268 -11.911306,-2.264126c1.613187,-0.304563 2.368011,-0.600665 3.122835,-1.682496c-3.968951,-1.152684 -8.241836,-2.145685 -10.75569,-4.054488c1.357125,0.017978 2.622959,0.278125 4.395349,-0.841777c-3.5548,-1.742774 -7.346734,-3.122823 -10.29144,-5.787745c1.832509,-0.040185 3.816428,-0.017978 4.393122,-0.631333c-3.253093,-1.832663 -5.997402,-3.873654 -8.267442,-6.102883c2.571747,0.281297 3.656111,0.039128 4.279565,-0.371186c-2.460416,-2.290564 -5.572118,-4.225805 -7.05616,-7.049353c1.909327,0.59855 3.656111,0.828029 4.915265,-0.053933c-0.837209,-1.715279 -4.414275,-2.727315 -6.477239,-6.734215c2.010638,0.175546 4.142627,0.398681 4.566799,0c-0.930727,-3.460168 -2.530554,-5.405984 -4.101435,-7.418423c4.300718,-0.05922 10.818036,0.01269 10.523009,-0.319368l-2.660812,-2.47034c4.202746,-1.031071 8.50235,0.166029 11.624072,1.051164c1.400544,-1.005691 -0.024493,-2.276816 -1.733424,-3.579667c3.570386,0.434636 6.795646,1.183352 9.710292,2.212308c1.559748,-1.280643 -1.009772,-2.560229 -2.25334,-3.842987c5.516452,0.953873 7.854404,2.291621 10.175656,3.6336c1.686665,-1.472052 0.096858,-2.719912 -1.038718,-3.999498c4.158214,1.401199 6.300223,3.212711 8.558016,4.998844c0.764844,-0.941183 1.940277,-1.629621 0.519916,-3.894805c2.951163,1.54925 5.175557,3.375568 6.821029,5.419732c1.826942,-1.059624 1.088817,-2.508411 1.099951,-3.841929c3.069396,2.272586 5.015463,4.688994 7.4024,7.052525c0.476497,-0.317253 0.897328,-1.398026 1.270287,-3.104846c7.321128,6.464551 17.668234,22.750184 2.658585,29.206275c-12.773009,-9.586316 -28.028476,-16.557414 -44.93298,-21.786794l0.00334,0l0.002227,0zm115.096019,0c-21.728476,10.195441 -34.362321,18.441894 -41.282658,25.470097c3.545893,12.928044 22.03575,13.517076 28.794657,13.154351c-1.384958,-0.58586 -2.538347,-1.289103 -2.946932,-2.366704c1.695572,-1.096637 7.7119,-0.115268 11.910193,-2.264126c-1.613187,-0.304563 -2.369124,-0.600665 -3.121722,-1.682496c3.966724,-1.152684 8.240723,-2.145685 10.754577,-4.054488c-1.357125,0.017978 -2.625186,0.278125 -4.396462,-0.841777c3.5548,-1.742774 7.346734,-3.122823 10.29478,-5.787745c-1.839189,-0.040185 -3.818654,-0.017978 -4.395349,-0.631333c3.254206,-1.832663 5.998516,-3.873654 8.269669,-6.102883c-2.57286,0.281297 -3.657224,0.039128 -4.280678,-0.371186c2.459302,-2.290564 5.571005,-4.225805 7.055047,-7.049353c-1.909327,0.59855 -3.654998,0.828029 -4.915265,-0.053933c0.836096,-1.715279 4.414275,-2.727315 6.477239,-6.734215c-2.012865,0.175546 -4.142627,0.398681 -4.570139,0c0.936294,-3.460168 2.533894,-5.407042 4.105888,-7.420538c-4.300718,-0.058163 -10.819149,0.01269 -10.524122,-0.317253l2.663038,-2.47034c-4.204973,-1.032128 -8.504577,0.163914 -11.624072,1.049049c-1.402771,-1.005691 0.026719,-2.276816 1.732311,-3.578609c-3.567046,0.434636 -6.795646,1.183352 -9.710292,2.212308c-1.559748,-1.281701 1.010886,-2.560229 2.25334,-3.842987c-5.516452,0.953873 -7.852177,2.291621 -10.176769,3.630427c-1.684438,-1.46888 -0.094631,-2.717797 1.039832,-3.996325c-4.159327,1.401199 -6.301336,3.212711 -8.556903,4.995671c-0.763731,-0.939068 -1.941613,-1.627506 -0.519916,-3.894805c-2.952499,1.551365 -5.178006,3.375568 -6.823479,5.421847c-1.826942,-1.059624 -1.087704,-2.508411 -1.099951,-3.840872c-3.066056,2.271529 -5.015463,4.690051 -7.400173,7.052525c-0.478723,-0.317253 -0.899555,-1.398026 -1.2714,-3.105903c-7.322242,6.464551 -17.668234,22.750184 -2.659698,29.207333c12.768555,-9.591604 28.019793,-16.559529 44.928749,-21.786794l-0.00334,0"/>
   <path stroke="null" id="svg_265" fill="#C51850" d="m4072.599711,377.148637c0.075705,12.064059 -11.517195,21.896775 -25.892257,21.961283c-14.376175,0.063451 -26.090426,-9.664572 -26.167244,-21.730746l0,-0.230537c-0.076818,-12.065117 11.516081,-21.897832 25.891143,-21.961283c14.377289,-0.063451 26.091539,9.664572 26.168358,21.729689l0,0.229479l0,0.002115zm-40.584612,-62.404645c10.783523,6.43071 12.727363,21.008468 4.34191,32.559635c-8.388793,11.551167 -23.929713,15.702947 -34.716577,9.271179c-10.783523,-6.43071 -12.728476,-21.010583 -4.340797,-32.559635c8.386566,-11.553282 23.9286,-15.702947 34.715463,-9.271179zm29.109723,-1.165375c-10.78575,6.432825 -12.72959,21.008468 -4.34191,32.56175c8.38768,11.549052 23.929491,15.702947 34.713014,9.269064c10.787976,-6.43071 12.72959,-21.008468 4.343023,-32.559635c-8.388793,-11.549052 -23.928377,-15.701889 -34.714127,-9.269064l0,-0.002115zm-82.348331,11.746807c11.642999,-2.842583 3.929985,43.84431 -5.54217,40.015071c-10.423924,-7.629925 -13.781668,-29.972969 5.539832,-40.015071l0.002338,0zm134.569263,-0.58163c-11.646339,-2.839411 -3.933325,43.847483 5.543172,40.017186c10.421697,-7.630983 13.777214,-29.975084 -5.543172,-40.017186zm-39.056037,-34.83201c20.096364,-3.088983 36.816057,7.775861 36.141391,27.609225c-0.661306,7.60243 -43.546018,-26.478749 -36.141391,-27.61134l0,0.002115zm-55.523009,-0.582687c-20.098701,-3.088983 -36.81962,7.779034 -36.14384,27.610283c0.661306,7.60243 43.547354,-26.479806 36.14384,-27.610283zm27.683573,-4.625543c-11.991465,-0.283412 -23.50198,8.103689 -23.532039,12.963999c-0.031173,5.911262 9.483177,11.961269 23.616651,12.115666c14.429614,0.093061 23.637803,-4.84339 23.684563,-10.941831c0.052326,-6.909762 -13.125928,-14.243585 -23.769174,-14.137834zm0.927387,121.191342c10.457323,-0.416658 24.490599,3.06466 24.516205,7.681743c0.17479,4.483837 -12.725136,14.61477 -25.209798,14.420188c-12.928872,0.508662 -25.607249,-9.639192 -25.440253,-13.155408c-0.194829,-5.15747 15.744434,-9.182348 26.133845,-8.946524zm-38.698887,-27.367267c7.443815,8.163967 10.836071,22.5059 4.625915,26.732762c-5.877165,3.228574 -20.153142,1.899286 -30.300965,-11.367161c-6.840178,-11.129221 -5.957435,-22.457255 -1.153501,-25.786292c7.184191,-3.982578 18.285008,1.398026 26.826324,10.420691l0.002227,0zm74.958289,-2.588781c-8.057026,8.589086 -12.542553,24.249732 -6.666502,29.294048c5.617764,3.920185 20.700891,3.371338 31.844013,-10.698815c8.090426,-9.449898 5.378402,-25.228985 0.758164,-29.419892c-6.864671,-4.833872 -16.71858,1.351496 -25.936789,10.821486l0,0.003173"/>
  </g>
  <g stroke="null" id="svg_284">
   <rect stroke="null" x="43054.502876" y="3982.70722" transform="matrix(1.0909889229348457,0,0,1.068669420791375,-42696.48916863464,-4220.701308932155) " id="svg_270" rx="60" fill="#242938" height="256" width="256"/>
   <path stroke="null" id="svg_271" d="m4294.043363,163.73644l240.716887,0l0,78.129353c0,18.359741 -15.313121,32.419156 -35.300038,32.419156l-170.117357,0c-19.991608,0 -35.299492,-14.059415 -35.299492,-32.419156l0,-78.129353z" fill="#000"/>
   <path stroke="#000" id="svg_272" d="m4342.737254,151.882758c-7.445127,-6.841622 -19.518446,-6.841622 -26.963573,0c-7.445127,6.838416 -7.445127,17.925861 0,24.767482c7.445127,6.837347 19.518446,6.837347 26.963573,0l143.15433,0c7.449272,6.837347 19.517792,6.837347 26.967064,0c7.445999,-6.841622 7.445999,-17.929067 0,-24.767482c-7.449272,-6.841622 -19.517792,-6.841622 -26.967064,0l-143.15433,0z" stroke-width="28.695" fill="#FFB13B"/>
   <path stroke="#000" id="svg_273" d="m4373.238031,109.023451c0,-9.676374 -8.536116,-17.516133 -19.066668,-17.516133c-10.534916,0 -19.071032,7.839759 -19.071032,17.516133c0,9.672313 8.536116,17.511965 19.071032,17.511965l101.223807,92.973812c0,9.672527 8.535897,17.512286 19.066122,17.512286c10.530225,0 19.067213,-7.839759 19.067213,-17.512286c0,-9.671458 -8.536988,-17.511217 -19.067213,-17.511217l-101.223261,-92.97456z" stroke-width="28.725" fill="#FFB13B"/>
   <path stroke="#000" id="svg_274" d="m4427.800787,98.524628c7.444908,-6.841942 7.444908,-17.929387 0,-24.771437c-7.450363,-6.837774 -19.523247,-6.837774 -26.968155,0c-7.444908,6.842049 -7.444908,17.929494 0,24.771437l0,131.484277c-7.444908,6.837347 -7.444908,17.929067 0,24.766414c7.444908,6.84269 19.517792,6.84269 26.968155,0c7.444908,-6.837347 7.444908,-17.929067 0,-24.766414l0,-131.484277z" stroke-width="28.695" fill="#FFB13B"/>
   <path stroke="#000" id="svg_275" d="m4474.461292,126.535523c10.530225,0 19.067213,-7.839652 19.067213,-17.511965c0,-9.676481 -8.536988,-17.516133 -19.067213,-17.516133c-10.530225,0 -19.066122,7.839652 -19.066122,17.516133l-101.223807,92.974453c-10.534916,0 -19.071032,7.839759 -19.071032,17.511217c0,9.672527 8.536116,17.512286 19.071032,17.512286c10.530552,0 19.066668,-7.839759 19.066668,-17.512286l101.223261,-92.973705z" stroke-width="28.725" fill="#FFB13B"/>
   <path stroke="null" id="svg_276" d="m4342.737254,151.882758c-7.445127,-6.841622 -19.518446,-6.841622 -26.963573,0c-7.445127,6.838416 -7.445127,17.925861 0,24.767482c7.445127,6.837347 19.518446,6.837347 26.963573,0l143.15433,0c7.449272,6.837347 19.517792,6.837347 26.967064,0c7.445999,-6.841622 7.445999,-17.929067 0,-24.767482c-7.449272,-6.841622 -19.517792,-6.841622 -26.967064,0l-143.15433,0z" fill="#FFB13B"/>
   <path stroke="null" id="svg_277" d="m4373.238031,109.023451c0,-9.676481 -8.536116,-17.516133 -19.066668,-17.516133c-10.534916,0 -19.071032,7.839652 -19.071032,17.516133c0,9.672313 8.536116,17.512072 19.071032,17.512072l101.223807,92.973705c0,9.672527 8.535897,17.512286 19.066122,17.512286c10.530225,0 19.067213,-7.839759 19.067213,-17.512286c0,-9.671458 -8.536988,-17.511217 -19.067213,-17.511217l-101.223261,-92.97456z" fill="#FFB13B"/>
   <path stroke="null" id="svg_278" d="m4427.800787,98.524628c7.444908,-6.841942 7.444908,-17.929387 0,-24.771437c-7.450363,-6.837774 -19.523247,-6.837774 -26.968155,0c-7.444908,6.842049 -7.444908,17.929494 0,24.771437l0,131.484277c-7.444908,6.837347 -7.444908,17.929067 0,24.766414c7.444908,6.84269 19.517792,6.84269 26.968155,0c7.444908,-6.837347 7.444908,-17.929067 0,-24.766414l0,-131.484277z" fill="#FFB13B"/>
   <path stroke="null" id="svg_279" d="m4474.461292,126.535523c10.530225,0 19.067213,-7.839759 19.067213,-17.512072c0,-9.676481 -8.536988,-17.516133 -19.067213,-17.516133c-10.530225,0 -19.066122,7.839652 -19.066122,17.516133l-101.223807,92.97456c-10.534916,0 -19.071032,7.839759 -19.071032,17.511217c0,9.672527 8.536116,17.512286 19.071032,17.512286c10.530552,0 19.066668,-7.839759 19.066668,-17.512286l101.223261,-92.973705z" fill="#FFB13B"/>
   <path stroke="null" id="svg_280" d="m4294.043363,164.805109l240.716887,0l0,78.129353c0,18.359741 -15.313121,32.419156 -35.300038,32.419156l-170.117357,0c-19.991608,0 -35.299492,-14.059415 -35.299492,-32.419156l0,-78.129353z" fill-opacity="0.9" fill="#000"/>
   <path stroke="null" id="svg_281" d="m4330.075782,219.45152c-5.646631,-5.185184 -9.141287,-12.3442 -9.141287,-20.250217c0,-15.821651 13.974041,-28.649959 31.191264,-28.649959c17.225624,0 31.19541,12.828308 31.19541,28.649959l-18.26981,0c0,-6.55415 -5.791624,-11.864368 -12.9256,-11.864368c-7.134086,0 -12.9172,5.310218 -12.9172,11.864368c0,3.272266 1.449051,6.239961 3.775913,8.3773l0.00851,0c2.339626,2.158712 4.287259,2.780678 9.132777,3.490274c8.617067,0.822875 16.411746,3.206008 22.058378,8.391192c5.64674,5.18839 9.137032,12.347406 9.137032,20.254492c0,15.820582 -13.969786,28.653165 -31.19541,28.653165c-17.217223,0 -31.191264,-12.832582 -31.191264,-28.653165l18.274064,0c0,6.55415 5.783114,11.871849 12.9172,11.871849c7.133977,0 12.9256,-5.317699 12.9256,-11.871849c0,-3.273334 -1.444688,-6.23248 -3.775804,-8.378368l-0.00851,0c-2.339626,-2.150163 -5.697908,-2.888613 -9.141287,-3.481725l0,-0.004275c-8.352938,-1.176605 -16.403237,-3.210283 -22.049977,-8.398673z" fill="#fff"/>
   <path stroke="null" id="svg_282" d="m4445.708279,170.551344l-22.067433,97.816381l-18.269701,0l-22.049977,-97.816381l18.274064,0l12.930401,57.290299l12.908581,-57.290299l18.274064,0z" fill="#fff"/>
   <path stroke="null" id="svg_283" d="m4476.90729,211.068877l31.187009,0l0,28.645684l0.008728,0c0,15.824857 -13.970113,28.657439 -31.195737,28.657439c-17.229988,0 -31.191373,-12.832582 -31.191373,-28.657439l0,-40.513258l-0.007637,0c0,-15.821651 13.969022,-28.645684 31.19901,-28.645684c17.217987,0 31.187009,12.824033 31.187009,28.645684l-18.269701,0c0,-6.5456 -5.790969,-11.864368 -12.917309,-11.864368c-7.138341,0 -12.920582,5.318768 -12.920582,11.864368l0,40.513258c0,6.55415 5.782241,11.867574 12.920582,11.867574c7.12634,0 12.908581,-5.313424 12.917309,-11.859025l0,-11.864368l-12.917309,0l0,-16.789865z" fill="#fff"/>
  </g>
  <g stroke="null" id="svg_291">
   <rect stroke="null" x="43213.385425" y="4132.039436" transform="matrix(1.1356314995314851,0,0,1.1021514638806602,-44353.27061533527,-4355.780025370689) " id="svg_288" fill="white" rx="60" height="256" width="256"/>
   <rect stroke="null" x="43213.385425" y="4132.039436" transform="matrix(1.1356314995314851,0,0,1.1021514638806602,-44353.27061533527,-4355.780025370689) " id="svg_289" fill="#1D9BF0" rx="60" height="256" width="256"/>
   <path stroke="null" id="svg_290" fill="white" d="m4947.851324,299.102496c0.124919,1.749004 0.124919,3.497898 0.124919,5.262994c0,53.782126 -42.186439,115.809006 -119.32648,115.809006l0,-0.033065c-22.787468,0.033065 -45.101491,-6.302102 -64.284692,-18.246117c3.313432,0.386855 6.643558,0.579732 9.981974,0.587447c18.884189,0.016532 37.228726,-6.133473 52.085398,-17.456977c-17.94593,-0.330645 -33.68283,-11.686112 -39.180309,-28.264674c6.286402,1.177098 12.76393,0.934624 18.934043,-0.700968c-19.565227,-3.836589 -33.641266,-20.519856 -33.641266,-39.895679c0,-0.177446 0,-0.346076 0,-0.515807c5.829764,3.151051 12.357033,4.900165 19.033752,5.094144c-18.427552,-11.952833 -24.107753,-35.744535 -12.979814,-54.346207c21.292636,25.428067 52.708292,40.886403 86.433141,42.522326c-3.380775,-14.136305 1.236703,-28.949882 12.131951,-38.887431c16.891383,-15.409951 43.457211,-14.620149 59.33561,1.765096c9.391673,-1.797278 18.393823,-5.142088 26.631694,-9.881119c-3.1298,9.421742 -9.682394,17.424904 -18.435842,22.510562c8.312823,-0.951046 16.434859,-3.111043 24.083337,-6.407468c-5.630461,8.188545 -12.72248,15.321338 -20.927417,21.083937z"/>
  </g>
  <defs>
   <linearGradient y2="0.857723" x2="0.576359" y1="-0.033213" x1="-0.008281" id="svg_297">
    <stop stop-color="#41D1FF"/>
    <stop stop-color="#BD34FE" offset="1"/>
   </linearGradient>
   <linearGradient y2="0.890301" x2="0.5105" y1="0.022418" x1="0.279861" id="svg_296">
    <stop stop-color="#FFEA83"/>
    <stop stop-color="#FFDD35" offset="0.083333"/>
    <stop stop-color="#FFA800" offset="1"/>
   </linearGradient>
  </defs>
  <g stroke="null" id="svg_302">
   <rect stroke="null" x="39283.080869" y="4215.738616" transform="matrix(1.157953184970442,0,0,1.0351872285437345,-45481.04435986886,-4080.0111966920085) " id="svg_299" fill="#242938" rx="60" height="256" width="256"/>
   <path stroke="null" id="svg_300" fill="url(#svg_297)" d="m269.881521,343.696018l-108.653063,173.691374c-2.244113,3.586924 -8.007246,3.607627 -10.283782,0.039337l-110.807667,-173.714044c-2.480683,-3.888888 1.239126,-8.599507 6.168764,-7.81173l108.769322,17.380587c0.693614,0.110869 1.404597,0.109833 2.098211,-0.003209l106.494639,-17.352533c4.913195,-0.80051 8.64991,3.873567 6.213577,7.770219z"/>
   <path stroke="null" id="svg_301" fill="url(#svg_296)" d="m206.887709,313.103751l-80.405953,14.084964c-1.322383,0.231468 -2.300853,1.232701 -2.379594,2.434346l-4.94666,74.679442c-0.116374,1.758783 1.690612,3.124195 3.610382,2.727718l22.386709,-4.61797c2.094737,-0.431673 3.986833,1.21738 3.557232,3.100386l-6.651283,29.115676c-0.448128,1.959609 1.610713,3.634542 3.75061,3.053802l13.827119,-3.755659c2.143371,-0.581775 4.20337,1.098334 3.749452,3.060013l-10.569797,45.733537c-0.661191,2.861257 3.595445,4.421285 5.370587,1.967891l1.185744,-1.637666l65.519307,-116.893135c1.09774,-1.957228 -0.794356,-4.188989 -3.199425,-3.774086l-23.04211,3.97574c-2.165372,0.373185 -4.007676,-1.429594 -3.397435,-3.323572l15.040654,-46.609512c0.611399,-1.897188 -1.237852,-3.701519 -3.40554,-3.321916z"/>
  </g>
  <g stroke="null" id="svg_311">
   <rect stroke="null" x="39205.111982" y="4245.634027" transform="matrix(1.1467926785139795,0,0,1.0463477302892858,-44630.35413442082,-4155.48483223605) " id="svg_306" rx="60" fill="#242938" height="256" width="256"/>
   <path stroke="null" id="svg_307" d="m368.446279,391.777109c0,0 -5.429375,-3.571185 1.085898,-8.339287l15.179751,-12.384676c0,0 4.343477,-4.169486 8.935923,-0.536672l140.079005,96.765087l0,46.401336c0,0 -0.067661,7.286766 -10.316547,6.481078l-154.96403,-128.386867z" fill="#2489CA"/>
   <path stroke="null" id="svg_308" d="m404.551785,421.685913l-36.105621,29.949611c0,0 -3.710104,2.518559 0,7.018901l16.763357,13.911193c0,0 3.98155,3.901831 9.863334,-0.536776l38.277417,-26.482015l-28.798487,-23.860914z" fill="#1070B3"/>
   <path stroke="null" id="svg_309" d="m467.939948,421.933897l66.216956,-46.133367l-0.430047,-46.153457c0,0 -2.827991,-10.072876 -12.261507,-4.830046l-88.114962,73.172248l34.589561,23.944621z" fill="#0877B9"/>
   <path stroke="null" id="svg_310" d="m523.410309,520.226756c3.846343,3.591065 8.506908,2.414971 8.506908,2.414971l51.60223,-23.200668c6.605526,-4.107961 5.677771,-9.205767 5.677771,-9.205767l0,-138.543555c0,-6.089116 -6.832591,-8.194472 -6.832591,-8.194472l-44.723768,-19.671023c-9.772967,-5.511113 -16.175511,0.990787 -16.175511,0.990787c0,0 8.233971,-5.407944 12.261507,4.830046l0,183.189329c0,1.259803 -0.294726,2.497632 -0.881884,3.613039c-1.176609,2.166986 -3.73281,4.189576 -9.863564,3.343081l0.4289,0.434234z" fill="#3C99D4"/>
  </g>
  <g stroke="null" id="svg_319">
   <rect stroke="null" x="39870.307899" y="4220.500873" transform="matrix(1.1579529940945317,0,0,1.0463480579974889,-45521.018427237934,-4129.18823027227) " id="svg_315" rx="60" fill="#242938" height="256" width="256"/>
   <path stroke="null" id="svg_316" d="m857.671424,339.242065l41.686308,0l-104.215769,162.445536l-104.215769,-162.445536l41.165229,0l38.559835,0l24.490706,37.66853l23.969627,-37.66853l38.559835,0z" fill="#41B883"/>
   <path stroke="null" id="svg_317" d="m690.926193,339.242065l104.215769,162.445536l104.215769,-162.445536l-41.686308,0l-62.529462,97.467322l-63.050541,-97.467322l-41.165229,0z" fill="#41B883"/>
   <path stroke="null" id="svg_318" d="m732.091422,339.242065l63.050541,97.938178l62.529462,-97.938178l-38.559835,0l-23.969627,37.66853l-24.490706,-37.66853l-38.559835,0z" fill="#fff"/>
  </g>
  <g stroke="null" id="svg_329">
   <rect stroke="null" x="39999.865075" y="4243.905572" transform="matrix(0.9458994962457079,0,0,0.9012586027940209,-36854.64283690487,-3515.074465873261) " id="svg_323" rx="60" fill="#0073AA" height="256" width="256"/>
   <path stroke="null" id="svg_324" d="m1021.139683,425.137634c0,30.602236 18.665246,57.048768 45.731308,69.58167l-38.706207,-101.0456c-4.502198,9.615618 -7.025101,20.255877 -7.025101,31.463929z" fill="#fff"/>
   <path stroke="null" id="svg_325" d="m1157.059671,421.236086c0,-9.554242 -3.601985,-16.171283 -6.691293,-21.321976c-4.113717,-6.368474 -7.969203,-11.761605 -7.969203,-18.130079c0,-7.106965 5.657425,-13.722563 13.625682,-13.722563c0.360388,0 0.700912,0.04263 1.05184,0.061826c-14.436318,-12.601668 -33.669293,-20.295533 -54.795012,-20.295533c-28.347094,0 -53.287154,13.857933 -67.795928,34.847795c1.903717,0.054436 3.697805,0.092649 5.221744,0.092649c8.487272,0 21.62506,-0.9812 21.62506,-0.9812c4.374123,-0.245683 4.889827,5.875665 0.520339,6.368474c0,0 -4.395784,0.492808 -9.287125,0.737049l29.548387,83.743237l17.757371,-50.743563l-12.641947,-33.002648c-4.36911,-0.244151 -8.508366,-0.737049 -8.508366,-0.737049c-4.372893,-0.244151 -3.860216,-6.614067 0.512678,-6.368474c0,0 13.399612,0.98129 21.372599,0.98129c8.48661,0 21.625154,-0.98129 21.625154,-0.98129c4.377623,-0.245593 4.891246,5.875665 0.520245,6.368474c0,0 -4.405054,0.492898 -9.286841,0.737049l29.32383,83.109021l8.093116,-25.768786c3.508341,-10.694335 6.17767,-18.37486 6.17767,-24.993704z" fill="#fff"/>
   <path stroke="null" id="svg_326" d="m1103.70621,431.900679l-24.345561,67.405131c7.268292,2.035943 14.956563,3.149899 22.921982,3.149899c9.44859,0 18.510307,-1.556474 26.944893,-4.382821c-0.217557,-0.330762 -0.41525,-0.682253 -0.576999,-1.065288l-24.944316,-65.106921z" fill="#fff"/>
   <path stroke="null" id="svg_327" d="m1173.481432,388.044985c0.349037,2.462599 0.54673,5.106261 0.54673,7.949912c0,7.845096 -1.538033,16.664812 -6.170102,27.692613l-24.785405,68.27845c24.123275,-13.403518 40.349235,-38.304392 40.349235,-66.826523c0.000946,-13.442272 -3.601985,-26.081703 -9.940458,-37.094452z" fill="#fff"/>
   <path stroke="null" id="svg_328" d="m1102.282631,335.017182c-52.154723,0 -94.588058,40.427757 -94.588058,90.120453c0,49.699004 42.433335,90.124959 94.588058,90.124959c52.152169,0 94.591841,-40.425955 94.591841,-90.124959c-0.001892,-49.692696 -42.439673,-90.120453 -94.591841,-90.120453zm0,176.114944c-49.76311,0 -90.251014,-38.577473 -90.251014,-85.994491c0,-47.413863 40.48639,-85.988092 90.251014,-85.988092c49.760935,0 90.245433,38.574229 90.245433,85.988092c0,47.417018 -40.484498,85.994491 -90.245433,85.994491z" fill="#fff"/>
  </g>
 </g>
</svg>