<svg width="2356" height="1456" xmlns="http://www.w3.org/2000/svg">
 <g>
  <title>background</title>
  <rect fill="none" id="canvas_background" height="402" width="582" y="-1" x="-1"/>
 </g>

 <g>
  <title>Layer 1</title>
  <g id="svg_262">undefined</g>
  <g stroke="null" id="svg_115">
   <rect stroke="null" x="130149.667431" y="12941.672756" transform="matrix(-1.131378861293722,0,0,1.0365894807273013,147544.47716047365,-13285.563709603306) " id="svg_250" rx="60" fill="#242938" height="256" width="256"/>
   <path stroke="null" id="svg_251" clip-rule="evenodd" d="m65.298117,200.992183l71.435261,-38.851581c8.526071,-4.637287 19.035449,-4.637287 27.56152,0l71.43594,38.851581c8.523809,4.63739 13.777253,13.205735 13.777253,22.480412l0,77.703474c0,9.272292 -5.253444,17.844887 -13.779742,22.482589l-71.435713,38.844117c-4.263036,2.319888 -9.01709,3.476722 -13.779064,3.476722c-4.75971,0 -9.514896,-1.156834 -13.777931,-3.476722l-71.435262,-38.844117c-8.526071,-4.637702 -13.782457,-13.210297 -13.782457,-22.482589l0,-77.703474c0,-9.274677 5.256386,-17.843022 13.780195,-22.480412z" fill-rule="evenodd" fill="#242938"/>
   <path stroke="null" id="svg_252" clip-rule="evenodd" d="m161.795682,358.525382l71.435714,-38.845155c6.98717,-3.800137 11.327592,-10.890409 11.327592,-18.505195l0,-77.701296c0,-7.615409 -4.340535,-14.705059 -11.325103,-18.503537l-71.438203,-38.851581c-3.424683,-1.862752 -7.325678,-2.847822 -11.28211,-2.847822c-3.954169,0 -7.855163,0.98507 -11.283241,2.847822l-71.435261,38.851581c-5.887696,3.201921 -9.858836,8.746638 -10.975507,14.965553c2.369108,-4.632726 7.71261,-5.892078 13.938588,-2.559754l67.581785,38.246109c8.42651,4.513311 14.640042,9.578087 14.645699,18.887697l0,76.297132c0.004526,5.574779 -2.452829,9.18522 -6.227109,10.232175c1.239991,0.196952 2.490165,0.333782 3.755046,0.333782c3.956432,0 7.857427,-0.98476 11.28211,-2.847511zm-96.497565,-157.534339l71.435261,-38.849301c4.263035,-2.319783 9.022746,-3.478587 13.780194,-3.478587c4.75858,0 9.518291,1.158804 13.781326,3.478587l71.43594,38.849301c8.523809,4.63739 13.777253,13.208016 13.777253,22.482693l0,77.701296c0,9.272293 -5.253444,17.844888 -13.779742,22.482589l-71.435713,38.846191c-4.265299,2.317814 -9.020484,3.476721 -13.779064,3.476721c-4.75971,0 -9.514896,-1.158907 -13.777931,-3.476721l-71.437524,-38.846191c-8.526071,-4.637701 -13.780195,-13.210296 -13.780195,-22.482589l0,-77.701296c0,-9.274677 5.254124,-17.845303 13.780195,-22.482693z" fill-rule="evenodd" fill="#fff"/>
   <path stroke="null" id="svg_253" clip-rule="evenodd" d="m84.0247,308.687196l17.787538,9.754307c0.471785,0.251891 0.817987,0.53488 0.821381,1.054211l0,4.26453c0,0.521404 -0.382406,0.738051 -0.85306,0.484087l-18.063595,-10.058028c-0.470653,-0.251891 -0.543061,-0.733905 -0.546456,-1.253237l0,-3.761783c0,-0.518295 0.382407,-0.735978 0.854192,-0.484087z" fill-rule="evenodd" fill="#47B353"/>
   <path stroke="null" id="svg_254" clip-rule="evenodd" d="m121.902132,272.789066c-0.575871,-0.26744 -1.049919,0.061158 -1.057839,0.751527l-0.059963,5.63801c-2.57615,-0.93915 -4.814017,-1.190005 -6.841448,-0.760856c-0.440106,0.107805 -0.634703,0.656161 -0.454814,1.307139l1.35426,4.996361c0.105219,0.377319 0.337151,0.758784 0.616602,0.996163c0.117663,0.105732 0.237589,0.187622 0.356384,0.242562c0.182152,0.085 0.362041,0.111951 0.534011,0.079817c0.925468,-0.191769 3.126,-0.63232 6.588019,0.974394c3.631726,1.684458 4.902265,4.575506 4.877374,6.721246c-0.030547,2.562449 -1.465135,3.338855 -6.418312,3.416599c-6.600464,0.100549 -9.45267,2.742816 -9.521684,8.833816c-0.067883,5.981121 3.416764,12.403829 8.747821,16.33976l-0.117663,5.580997c-0.006789,0.67171 0.469522,1.441896 1.045394,1.709337l3.607967,1.904214c0.578134,0.267441 1.052182,-0.062195 1.060102,-0.733905l0.062226,-5.489778c3.089795,1.176529 6.221452,1.460555 8.22173,0.724576c0.376749,-0.134756 0.538536,-0.644758 0.389194,-1.225249l-1.307874,-5.046117c-0.104087,-0.39805 -0.333757,-0.796101 -0.646017,-1.049029c-0.109744,-0.098476 -0.224013,-0.174147 -0.338282,-0.227013c-0.207043,-0.095366 -0.40956,-0.116098 -0.581529,-0.057012c-2.155277,0.66549 -4.912447,0.354513 -7.563268,-0.874882c-3.368115,-1.561103 -5.62069,-4.708189 -5.585617,-7.834543c0.03281,-2.837145 1.708382,-4.015748 5.78474,-4.043736c5.188503,0.013476 10.025148,-0.923601 10.105476,-7.921616c0.064488,-5.761365 -3.205197,-11.756998 -8.381255,-15.547806l0.064489,-5.633864c0.007919,-0.692442 -0.453683,-1.454335 -1.047657,-1.727995l-3.492567,-2.043117z" fill-rule="evenodd" fill="#242938"/>
  </g>
  <g stroke="null" id="svg_124">
   <rect stroke="null" x="29514.562965" y="2953.009479" transform="matrix(1.0436803385738835,0,0,0.9990362609145662,-30362.261162551153,-2869.607505289842) " id="svg_256" fill="#0277BD" rx="60" height="256" width="256"/>
   <path stroke="null" id="svg_257" fill="#EBEBEB" d="m497.608542,183.108114l2.987848,31.911216l74.602793,0l0,-31.911216l-77.590641,0z"/>
   <path stroke="null" id="svg_258" fill="#EBEBEB" d="m575.198139,118.519421l-0.114805,0l-83.478772,0l3.03043,31.911516l80.563147,0l0,-31.911516z"/>
   <path stroke="null" id="svg_259" fill="#EBEBEB" d="m575.198139,299.186137l0,-33.200972l-0.146115,0.036964l-37.127572,-9.595743l-2.373433,-25.451448l-18.041267,0l-15.42403,0l4.67047,50.105665l68.288526,18.146495l0.153421,-0.040961z"/>
   <path stroke="null" id="svg_260" fill="white" d="m616.134413,215.01933l-3.869967,41.386076l-37.181112,9.606733l0,33.198974l68.34332,-18.13051l0.500966,-5.391799l7.833865,-84.010957l0.813027,-8.569733l6.018904,-64.588693l-83.510082,0l0,31.911516l46.975008,0l-3.032935,32.677177l-43.942073,0l0,31.911216l41.051079,0z"/>
  </g>
  <g stroke="null" id="svg_130">
   <rect stroke="null" x="39905.735457" y="4984.310574" transform="matrix(1.0686674742095212,0,0,1.0351872342034494,-41809.39802221976,-4053.606960618393) " id="svg_263" rx="60" fill="#2396ED" height="256" width="256"/>
   <path stroke="null" id="svg_264" d="m987.44545,1232.507887l22.139584,0l0,-19.403549l-22.139584,0l0,19.403549zm-26.355477,0l22.138515,0l0,-19.403549l-22.138515,0l0,19.403549zm-25.829265,0l22.139156,0l0,-19.403549l-22.139156,0l0,19.403549zm-25.829159,0l21.61209,0l0,-19.403549l-21.61209,0l0,19.403549zm-26.356118,0l22.139156,0l0,-19.403549l-22.139156,0l0,19.403549zm26.356118,-23.488088l21.61209,0l0,-19.403239l-21.61209,0l0,19.403239zm25.829159,0l22.139156,0l0,-19.403239l-22.139156,0l0,19.403239zm25.829265,0l22.138515,0l0,-19.403239l-22.138515,0l0,19.403239zm0,-23.488087l22.138515,0l0,-19.403136l-22.138515,0l0,19.403136zm119.129707,38.29613c0,0 -9.488699,-8.68108 -28.99188,-5.616926c-2.108481,-14.807836 -18.449476,-23.488191 -18.449476,-23.488191c0,0 -15.286219,17.871265 -4.216961,37.785162c-3.162187,1.532077 -8.433924,3.574502 -16.340995,3.574502l-144.958651,0c-2.635655,9.701774 -2.635655,74.037626 70.107472,74.037626c52.184742,0 91.192174,-23.487363 109.641649,-66.379311c27.410252,2.043459 33.208842,-19.912862 33.208842,-19.912862z" fill="#fff"/>
  </g>
  <g stroke="null" id="svg_168">
   <rect stroke="null" x="40399.190641" y="4666.751737" transform="matrix(1.0240246608992496,0,0,1.0575085112433091,-39911.93397740042,-4173.803881607355) " id="svg_269" fill="#242938" rx="60" height="256" width="256"/>
   <path stroke="null" id="svg_270" fill="#E24329" d="m1588.907652,993.97873l38.464414,-119.701503l-76.924323,0l38.459909,119.697273l0,0.00423z"/>
   <path stroke="null" id="svg_271" fill="#FC6D26" d="m1588.907652,993.97873l-38.460011,-119.701503l-53.905682,0l92.365693,119.697273l0,0.00423z"/>
   <path stroke="null" id="svg_272" fill="#FCA326" d="m1496.542368,874.274054l-11.692313,36.378293c-1.068058,3.316347 0.096258,6.952061 2.889797,9.00257l101.168824,74.323813l-92.366308,-119.701503l0,-0.003173z"/>
   <path stroke="null" id="svg_273" fill="#E24329" d="m1496.541959,874.272997l53.905682,0l-23.167534,-72.096172c-1.191965,-3.707624 -6.384794,-3.707624 -7.57471,0l-23.163438,72.099344l0,-0.003172z"/>
   <path stroke="null" id="svg_274" fill="#FC6D26" d="m1588.908676,993.97873l38.464414,-119.701503l53.907731,0l-92.372145,119.697273l0,0.00423z"/>
   <path stroke="null" id="svg_275" fill="#FCA326" d="m1681.278772,874.274054l11.690266,36.378293c1.06601,3.316347 -0.102402,6.952061 -2.891846,9.00257l-101.168516,74.323813l92.370096,-119.701503l0,-0.003173z"/>
   <path stroke="null" id="svg_276" fill="#E24329" d="m1681.277748,874.272997l-53.904658,0l23.165486,-72.095114c1.192989,-3.707625 6.384794,-3.707625 7.574711,0l23.167534,72.098286l-0.003073,-0.003172z"/>
  </g>
  <g stroke="null" id="svg_178">
   <rect stroke="null" x="39240.613975" y="4757.68672" transform="matrix(0.9682211908427093,0,0,0.9347406518008131,-37591.47471284191,-3657.940859971568) " id="svg_278" fill="#242938" rx="60" height="256" width="256"/>
   <path stroke="null" id="svg_279" fill="#4285F4" d="m442.432524,979.04085l30.806959,0l0,-72.230214l-44.01001,-31.865683l0,91.349774c0,7.052618 5.919317,12.746123 13.203051,12.746123z"/>
   <path stroke="null" id="svg_280" fill="#34A853" d="m578.863217,979.04085l30.80783,0c7.305229,0 13.202664,-5.714069 13.202664,-12.746123l0,-91.349774l-44.010494,31.865683"/>
   <path stroke="null" id="svg_281" fill="#FBBC04" d="m578.863217,851.576156l0,55.23448l44.010494,-31.865963l0,-16.995268c0,-15.763092 -18.638258,-24.749409 -31.686975,-15.295722"/>
   <path stroke="null" id="svg_282" fill="#EA4335" d="m473.239483,906.810636l0,-55.234199l52.812109,38.239679l52.811625,-38.239679l0,55.234199l-52.811625,38.24024"/>
   <path stroke="null" id="svg_283" fill="#C5221F" d="m429.229473,857.949405l0,16.995268l44.01001,31.865963l0,-55.23448l-12.322745,-8.922473c-13.070986,-9.453687 -31.687265,-0.46737 -31.687265,15.295722z"/>
  </g>
  <g stroke="null" id="svg_186">
   <rect stroke="null" x="39219.769974" y="5166.913033" transform="matrix(0.9570604600934959,0,0,0.9459013646896243,-37127.381332268706,-3775.270576935455) " id="svg_285" rx="60" fill="#E14E1D" height="256" width="256"/>
   <path stroke="null" id="svg_286" d="m454.248666,1148.063764l8.2401,91.367451l105.956355,0l-3.55548,39.188694l-34.115377,9.116597l-34.051254,-9.103354l-2.276656,-25.162868l-30.685559,0l4.387835,48.506768l62.617977,17.188919l62.697031,-17.188919l8.405862,-92.756034l-111.420883,0l-2.797583,-30.940623l116.895364,0l0.093792,0l2.73815,-30.216631l-153.129674,0z" fill="#fff"/>
   <path stroke="null" id="svg_287" d="m530.813503,1148.063764l-76.564837,0l8.2401,91.367451l68.324737,0l0,-30.210197l-40.364886,0l-2.797583,-30.940623l43.162469,0l0,-30.216631z" fill="#EBEBEB"/>
   <path stroke="null" id="svg_288" d="m530.813503,1287.723263l-0.039239,0.013243l-34.051254,-9.103354l-2.276656,-25.162868l-30.685655,0l4.387931,48.506768l62.617977,17.188919l0.046896,-0.013243l0,-31.429465z" fill="#EBEBEB"/>
  </g>
  <g stroke="null" id="svg_193">
   <rect stroke="null" x="39715.267433" y="4780.153952" transform="matrix(1.0128638455187684,0,0,0.95706229575296,-39498.801286365604,-3771.357075440504) " id="svg_290" fill="#F0DB4F" rx="60" height="256" width="256"/>
   <path stroke="null" id="svg_291" fill="#323330" d="m795.534799,1008.294291l19.843016,-11.346931c3.828018,6.413275 7.310345,11.839818 15.66323,11.839818c8.006689,0 13.054802,-2.959237 13.054802,-14.470782l0,-78.285782l24.367479,0l0,78.611183c0,23.847121 -14.79389,34.702122 -36.378018,34.702122c-19.492261,0 -30.807368,-9.53904 -36.550914,-21.051542"/>
   <path stroke="null" id="svg_292" fill="#323330" d="m881.698418,1005.826984l19.839977,-10.854043c5.223339,8.059421 12.011552,13.979809 24.020066,13.979809c10.097239,0 16.535002,-4.769999 16.535002,-11.348845c0,-7.89385 -6.614001,-10.690386 -17.753477,-15.293856l-6.090351,-2.468263c-17.580278,-7.070776 -29.242392,-15.952315 -29.242392,-34.701165c0,-17.269232 13.924852,-30.426924 35.682181,-30.426924c15.490739,0 26.630216,5.099227 34.635892,18.420578l-18.971953,11.512502c-4.178063,-7.071733 -8.701513,-9.867312 -15.663939,-9.867312c-7.136639,0 -11.662115,4.276154 -11.662115,9.867312c0,6.907119 4.525476,9.703655 14.968102,13.980766l6.091363,2.466349c20.712053,8.388651 32.374167,16.939046 32.374167,36.180783c0,20.724227 -17.230839,32.071158 -40.379843,32.071158c-22.626365,0 -37.247055,-10.196542 -44.38268,-23.518849"/>
  </g>
  <g stroke="null" id="svg_228">
   <rect stroke="null" x="40107.376811" y="4701.325214" transform="matrix(1.0909889229348457,0,0,1.0240264365646785,-42696.48916863464,-4033.1142353279283) " id="svg_306" rx="60" fill="#242938" height="256" width="256"/>
   <path stroke="null" id="svg_307" d="m1153.984395,985.89658l26.762722,13.94724l40.471325,0l37.859498,-26.681009l16.971424,-41.840696l-39.165412,-44.265591l-11.096448,-24.861519l-54.17851,1.819081l0.652411,13.94683l-10.443927,18.191011l-16.318795,29.713151l-3.263802,24.861314l11.749514,35.170188z" fill="#ECEFF1"/>
   <path stroke="null" id="svg_308" d="m1264.299413,898.577845c-10.444037,-13.94724 -18.929749,-22.436112 -23.49881,-40.021206c-4.569062,-17.585094 1.305913,-12.733973 -2.610737,-27.893558c-1.958325,-7.882956 -5.222564,-13.340402 -8.485712,-17.585094c-3.91665,-4.244692 -8.485712,-6.670201 -11.097539,-7.27663c-5.873884,-3.031835 -19.58216,-7.882955 -36.553584,0.606429c-17.624599,8.489384 -15.666383,26.680804 -12.402362,63.670175c0,2.425509 -0.652957,5.457446 -1.958434,7.882955c-2.611064,5.457447 -7.180344,10.308055 -11.096885,14.553669c-4.56928,6.06326 -9.13856,12.127545 -12.402253,18.797029c-7.833082,13.94724 -15.013317,31.531822 -13.055101,38.20233c3.263803,-0.606223 44.387648,57.606608 44.387648,58.819055c2.610737,-0.606224 13.707185,-0.606224 23.498811,-0.606224c13.708276,-0.606223 21.540485,-1.212447 32.638024,1.212448c0,-1.818671 -0.653502,-3.638366 -0.653502,-5.457037c0,-3.638366 0.653502,-6.670509 1.305914,-10.915098c0.652411,-3.032142 1.305913,-6.063261 1.958325,-9.701627c-6.527387,5.457037 -18.277338,11.521322 -29.373786,13.339993c-9.791626,1.818671 -26.110638,-1.212448 -33.943938,-10.308874c0.653502,0 1.958325,0 2.611827,-0.606224c1.958325,-0.606224 3.91665,-1.212447 4.569062,-2.424895c1.958325,-3.032142 0.652411,-6.064284 -0.652412,-7.882955c-1.305913,-1.819695 -11.097212,-8.490203 -15.666491,-12.127545c-4.56928,-3.638366 -7.180344,-5.458061 -9.791299,-7.882956c0,0 -3.916541,-3.638366 -5.222127,-4.851837c-1.305478,-1.212447 -1.958216,-2.424895 -2.610955,-3.032142c-1.305477,-3.031119 -1.958325,-6.669484 -1.305477,-11.520298c0.652738,-6.670508 3.263693,-12.128569 6.527496,-18.191829c1.305477,-2.425919 4.569279,-7.276732 4.569279,-7.276732c0,0 -11.096775,25.468561 -5.222018,33.351517c0,0 0.652739,-7.882956 3.263802,-15.765911c1.958216,-5.458061 5.222019,-13.341017 9.138451,-17.585606c3.916541,-4.24459 13.707512,-20.010501 14.361014,-29.712742c0,-4.244692 0.652412,-8.489384 0.652412,-11.521219c-2.610737,-2.425611 43.082061,-8.489384 45.692798,-1.819183c0.652411,2.425509 9.791625,24.255091 15.013098,35.776412c2.610737,5.458061 5.874976,10.308874 7.833301,16.372135c1.958325,6.670508 3.263148,15.765911 3.263148,24.862337c0,1.818671 0,4.850814 -0.652412,7.882956c1.305914,0 26.76305,-25.468561 -3.263148,-46.691509c0,0 18.276247,7.882955 18.929749,23.648866c0.652412,12.733769 -5.222564,23.042643 -6.527387,24.861314c0.652412,0 13.707185,5.458061 14.359597,5.458061c2.611827,0 7.8333,-1.819695 7.8333,-1.819695c0.653503,-1.818671 2.610737,-6.670508 2.610737,-8.489179c4.570152,-13.94724 -6.527387,-36.382636 -16.971424,-50.329876l0,0z" fill="#263238"/>
   <path stroke="null" id="svg_309" d="m1181.399529,858.556639c4.686888,0 8.485712,-5.429797 8.485712,-12.127647c0,-6.697952 -3.798824,-12.127648 -8.485712,-12.127648c-4.685798,0 -8.485712,5.429696 -8.485712,12.127648c0,6.69785 3.799914,12.127647 8.485712,12.127647z" fill="#ECEFF1"/>
   <path stroke="null" id="svg_310" d="m1210.773314,859.769394c6.129176,0 11.09754,-6.244206 11.09754,-13.946728c0,-7.702625 -4.968364,-13.946831 -11.09754,-13.946831c-6.128084,0 -11.096448,6.244206 -11.096448,13.946831c0,7.702522 4.968364,13.946728 11.096448,13.946728z" fill="#ECEFF1"/>
   <path stroke="null" id="svg_311" d="m1186.140967,847.258863c-0.542222,-3.987047 -3.012221,-6.980788 -5.51604,-6.686893c-2.502729,0.293998 -4.093391,3.764424 -3.550078,7.751471c0.542221,3.986944 3.011129,6.980788 5.514949,6.68679c2.503819,-0.293998 4.09339,-3.764424 3.551169,-7.751368z" fill="#212121"/>
   <path stroke="null" id="svg_312" d="m1210.120903,856.13113c3.605718,0 6.527387,-3.529307 6.527387,-7.882955c0,-4.353649 -2.921669,-7.883058 -6.527387,-7.883058c-3.604627,0 -6.527387,3.529409 -6.527387,7.883058c0,4.353648 2.92276,7.882955 6.527387,7.882955z" fill="#212121"/>
   <path stroke="null" id="svg_313" d="m1296.937438,981.65199c-2.610737,-1.212447 -7.18089,-3.032142 -11.09754,-8.489179c-1.957234,-3.032142 -1.304822,-11.521322 -4.569061,-15.159687c-1.958325,-2.424895 -4.569062,-1.212448 -5.221473,-1.212448c-5.874976,1.212448 -19.583252,9.701627 -28.721375,0c-1.305913,-1.212447 -3.264239,-3.032142 -6.527386,-3.032142c-3.264239,0 -4.569062,1.212447 -5.874976,3.638366c-1.305914,2.425919 -1.305914,4.244589 -1.305914,10.308874c0,4.850813 0,10.30785 -0.652411,14.55244c-1.305914,10.308874 -3.263148,16.373158 -3.263148,22.436419c0,6.670508 1.957234,10.915098 4.569062,12.733769c1.958325,1.819695 5.221473,3.032142 12.402362,3.032142c7.179798,0 11.74886,-2.424895 16.319012,-6.670508c3.263148,-3.031119 5.873885,-4.24459 15.013099,-10.30785c7.179798,-4.24459 18.277337,-9.702651 20.234571,-11.521322c1.305914,-1.212447 3.264239,-1.819695 3.264239,-5.458061c0,-3.031118 -2.610736,-4.244589 -4.569061,-4.850813l0,0z" fill="#FFC107"/>
   <path stroke="null" id="svg_314" d="m1165.73391,983.471685c-6.527605,-9.70265 -7.180344,-11.521321 -11.749624,-17.585606c-3.916541,-6.06326 -12.402253,-17.584582 -17.624271,-17.584582c-3.916541,0 -5.874866,1.818671 -8.485821,4.24459c-2.611064,2.424894 -5.222019,7.882955 -9.791298,10.915097c-3.916542,3.031119 -15.013317,2.424895 -17.624381,6.063261c-2.611064,3.638366 2.611064,9.096427 2.611064,18.19183c0,3.638366 -3.263803,6.06326 -3.916541,8.489179c-0.652739,3.032142 -1.305587,4.850813 0,7.276732c2.610954,3.638366 5.874757,4.850813 28.068417,9.095402c11.749514,2.425919 22.84629,8.48918 30.026634,9.096427c7.180234,0.606224 19.582378,0 19.582378,-16.373158c0.653502,-9.701627 -5.221473,-12.127546 -11.096557,-21.829172z" fill="#FFC107"/>
   <path stroke="null" id="svg_315" d="m1178.136381,873.716224c-3.91665,-2.425509 -7.180889,-4.85112 -7.180889,-8.489384c0,-3.638263 2.611827,-4.851018 6.528477,-7.882955c0.652412,-0.606429 7.83221,-6.670201 15.013099,-6.670201c7.179798,0 15.66551,4.244692 18.929749,5.457446c5.874975,1.212755 11.74886,2.425509 11.096448,6.670201c-0.652411,6.063773 -1.304823,7.27663 -7.8333,10.308465c-4.569062,1.212754 -13.054774,7.882955 -18.929749,7.882955c-2.610737,0 -6.527387,0 -9.138123,-0.606326c-1.958325,-0.606428 -5.222564,-3.638263 -8.485712,-6.670201l0,0z" fill="#FFC107"/>
   <path stroke="null" id="svg_316" d="m1176.830467,868.865206c1.305914,1.212755 3.264239,2.425509 5.222564,3.031835c1.304823,0.606429 3.263148,1.212857 3.263148,1.212857c2.611827,0 4.570152,0 5.874975,0c3.264239,0 7.833301,-1.212754 12.402362,-3.638366c4.569062,-1.81908 5.222564,-3.031937 8.485712,-4.244692c3.264239,-1.81908 6.527387,-3.638263 5.222564,-4.244589c-1.305914,-0.606429 -2.611827,0 -7.180889,2.425509c-3.91665,2.425509 -7.179798,3.638263 -11.096448,5.457446c-1.958325,0.606326 -4.569062,1.819081 -6.527387,1.819081c-1.958325,0 -3.91665,0 -5.874975,0c-1.958325,0 -3.264239,-0.606326 -5.222564,-1.212755c-1.304823,-0.606326 -1.958325,-1.212754 -2.610737,-1.212754c-1.304823,-0.606326 -3.91665,-3.031938 -5.221473,-3.638264c0,0 -1.305914,0 -0.653502,0.606326c1.958325,1.819183 2.611827,2.425612 3.91665,3.638366z" fill="#634703"/>
   <path stroke="null" id="svg_317" d="m1196.413718,855.524702c0.652412,1.212754 1.958325,1.212754 2.610737,1.819183c0.652411,0.606326 1.304822,0.606326 1.304822,0.606326c0.653503,-0.606326 0,-1.819081 -0.652411,-1.819081c0,-1.212754 -3.263148,-1.212754 -3.263148,-0.606428l0,0z" fill="#634703"/>
   <path stroke="null" id="svg_318" d="m1185.969681,856.737456c0,0.606429 1.304823,1.212755 1.304823,0.606429c0.653502,-0.606429 1.305914,-1.212755 1.958325,-1.212755c1.305914,-0.606428 0.652412,-1.212754 -1.304823,-1.212754c-1.305913,0.606326 -1.305913,1.212754 -1.958325,1.81908l0,0z" fill="#634703"/>
   <path stroke="null" id="svg_319" d="m1249.286314,964.067408c0,0.606224 0,1.212447 0,1.818671c1.305914,2.425919 4.569062,3.032142 7.179798,3.032142c3.916651,0 7.833301,-2.425918 9.791626,-4.850813c0,-0.606224 0.652411,-1.213471 1.305914,-1.819695c1.304823,-1.818671 1.958325,-3.031118 2.610736,-3.638366c0,0 -0.652411,-0.606223 -0.652411,-1.212447c-0.653502,-1.212447 -2.611828,-2.425919 -5.222564,-3.032142c-1.958325,-0.606224 -5.221473,-1.212448 -6.527387,-1.212448c-5.874975,-0.606223 -9.138123,1.212448 -11.096448,3.032143c0,0 0.652411,0 0.652411,0.606223c1.305914,1.212448 1.958325,2.425919 1.958325,4.24459c0.652412,1.212447 0,1.818671 0,3.032142l0,0z" fill="#455A64"/>
  </g>
  <g stroke="null" id="svg_235">
   <rect stroke="null" x="40340.673922" y="4371.728824" transform="matrix(1.146792665682564,0,0,1.0909908648133795,-45093.12662164213,-4308.8252788779355) " id="svg_321" rx="60" fill="#242938" height="256" width="256"/>
   <path stroke="#fff" id="svg_322" d="m1418.11637,535.969301l-204.129094,0c-6.333507,0 -11.467927,4.884584 -11.467927,10.909909l0,106.917104c0,6.025543 5.13442,10.909909 11.467927,10.909909l204.129094,0c6.333736,0 11.467927,-4.884366 11.467927,-10.909909l0,-106.917104c0,-6.025325 -5.134191,-10.909909 -11.467927,-10.909909z" stroke-width="10"/>
   <path stroke="null" id="svg_323" d="m1231.189166,637.431451l0,-74.187378l22.935853,0l22.935853,27.274771l22.935854,-27.274771l22.935853,0l0,74.187378l-22.935853,0l0,-42.548643l-22.935854,27.274771l-22.935853,-27.274771l0,42.548643l-22.935853,0zm143.349083,0l-34.40378,-36.002698l22.935853,0l0,-38.18468l22.935853,0l0,38.18468l22.935854,0l-34.40378,36.002698z" fill="#fff"/>
  </g>
  <g stroke="null" id="svg_242">
   <rect stroke="null" x="39963.704648" y="4083.675554" transform="matrix(1.1244709927228016,0,0,1.0351872285437345,-44088.76421814924,-4080.0111966920085) " id="svg_325" rx="60" fill="#242938" height="256" width="256"/>
   <path stroke="null" id="svg_326" d="m984.061755,179.568882c5.531273,-2.914673 12.734634,-2.927613 18.260284,0c27.799172,14.460634 55.60734,28.899115 83.402014,43.368548c5.22879,2.710948 8.72477,8.067214 8.67192,13.612712l0,87.002518c0.039357,5.775309 -3.802961,11.259731 -9.318491,13.908775c-27.70809,14.381857 -55.402686,28.780276 -83.106278,43.162132c-5.64372,2.970987 -12.992138,2.742211 -18.461564,-0.473081c-8.306468,-4.432671 -16.627553,-8.844639 -24.935032,-13.27317c-1.697839,-0.931669 -3.611464,-1.672863 -4.810037,-3.188377c1.059364,-1.314688 2.954322,-1.478247 4.493835,-2.052776c3.466857,-1.015519 6.652483,-2.644904 9.836985,-4.225634c0.806246,-0.507242 1.789033,-0.312627 2.561545,0.140785c7.103283,3.749448 14.144721,7.608626 21.271618,11.321843c1.520285,0.808481 3.059685,-0.265008 4.359574,-0.931669c27.189708,-14.147904 54.413151,-28.240943 81.599486,-42.392987c1.007526,-0.446166 1.56414,-1.430629 1.482053,-2.446148c0.019116,-28.700565 0.004498,-57.405272 0.01012,-86.106045c0.114696,-1.152474 -0.609463,-2.211988 -1.741805,-2.684034c-27.611385,-14.315397 -55.210401,-28.652429 -82.817289,-42.97145c-0.979414,-0.619973 -2.271431,-0.621526 -3.25197,-0.004658c-27.608012,14.323679 -55.200506,28.674169 -82.807843,42.988531c-1.128069,0.472563 -1.885063,1.514996 -1.750801,2.671611c0.004723,28.700773 0,57.40548 0,86.110186c-0.098054,1.015519 0.501064,1.979278 1.501393,2.416127c7.367085,3.845721 14.743839,7.664526 22.115646,11.497825c4.153121,2.056917 9.25226,3.280508 13.827957,1.703918c4.037751,-1.333321 6.868044,-5.127282 6.791018,-9.073416c0.038232,-28.532866 -0.019116,-57.069872 0.028674,-85.598804c-0.100528,-1.266759 1.204196,-2.313333 2.542091,-2.193872c3.54006,-0.022257 7.084168,-0.043892 10.624002,0.008799c1.477555,-0.031056 2.494077,1.33301 2.311913,2.609086c-0.014618,28.713609 0.038232,57.427632 -0.023614,86.140621c0.008996,7.653139 -3.406023,15.980185 -11.094818,19.724457c-9.472094,4.516522 -21.179861,3.558974 -30.537709,-0.77225c-8.101138,-3.722533 -15.832101,-8.115868 -23.78942,-12.103409c-5.529811,-2.634551 -9.353125,-8.140712 -9.314218,-13.911881l0,-87.003553c-0.058023,-5.6603 3.577954,-11.11377 8.968555,-13.784863c27.70348,-14.392933 55.402349,-28.797253 83.100206,-43.196397z" fill="#81CD39"/>
   <path stroke="null" id="svg_327" d="m1008.231134,239.836137c12.082441,-0.716142 25.017231,-0.424013 35.889741,5.055233c8.418914,4.199651 13.085469,13.012821 13.233899,21.622474c-0.235014,1.160444 -1.554019,1.801225 -2.758327,1.721516c-3.504976,-0.004141 -7.012201,0.044513 -10.517177,-0.021739c-1.487676,0.052795 -2.351269,-1.209099 -2.537931,-2.419233c-1.007527,-4.120045 -3.448753,-8.199718 -7.659897,-10.187277c-6.465708,-2.979269 -13.961432,-2.829167 -21.011865,-2.767056c-5.146704,0.250516 -10.68135,0.661485 -15.042048,3.447174c-3.34755,2.110747 -4.364072,6.371577 -3.169884,9.803223c1.12672,2.463746 4.215642,3.258769 6.744577,3.991682c14.560775,3.506179 29.990766,3.156286 44.273796,7.770115c5.913593,1.880936 11.697872,5.538252 13.72192,11.237993c2.648129,7.639682 1.487675,16.770033 -4.416922,22.902482c-4.787998,5.046538 -11.760842,7.793925 -18.715695,9.28563c-9.252148,1.899568 -18.854006,1.948222 -28.250085,1.104544c-8.834969,-0.927527 -18.029768,-3.064154 -24.849685,-8.605511c-5.832631,-4.662483 -8.680916,-11.927427 -8.398673,-18.937715c0.067468,-1.184254 1.34824,-2.010334 2.58066,-1.913026c3.529715,-0.02588 7.060554,-0.035197 10.590268,0.005176c1.411211,-0.093167 2.455845,1.028976 2.528936,2.252567c0.649944,3.924395 2.252315,8.04444 5.970941,10.370506c7.174124,4.261866 16.177764,3.969943 24.393149,4.088989c6.806423,-0.27743 14.447203,-0.36128 20.000965,-4.503064c2.930372,-2.362297 3.798463,-6.314642 3.006836,-9.714197c-0.857972,-2.870574 -4.120062,-4.208036 -6.921119,-5.082769c-14.374113,-4.185262 -29.977272,-2.666643 -44.211951,-7.400554c-5.779781,-1.8799 -11.368401,-5.434733 -13.588107,-10.900521c-3.097918,-7.735955 -1.678835,-17.305225 4.844221,-23.230533c6.360008,-5.89446 15.540189,-8.164419 24.269457,-8.976627l0,0.000518" fill="#81CD39"/>
  </g>
  <g stroke="null" id="svg_341">
   <rect stroke="null" x="39208.806653" y="4665.823845" transform="matrix(1.113310261973588,0,0,1.0575086900421615,-43624.670837576035,-4173.804604852106) " id="svg_337" fill="#242938" rx="60" height="256" width="256"/>
   <path stroke="null" id="svg_338" fill="#050606" d="m127.74184,791.015793c-1.156729,0.032782 -2.402524,0.421946 -3.816428,1.437154c-3.464621,-1.215078 -6.822365,-1.637024 -9.824963,0.836489c-4.63805,-0.546732 -6.145472,0.582688 -7.286615,1.903516c-1.017566,-0.020093 -7.617269,-0.953873 -10.643246,3.155606c-7.605023,-0.818512 -10.010886,4.072466 -7.287729,8.630328c-1.550842,2.191158 -3.162915,4.350591 0.47093,8.524578c-1.28476,2.323346 -0.488743,4.84339 2.539461,7.896417c-0.799357,3.26453 0.77041,5.569898 3.587085,7.366606c-0.527709,4.469031 4.50334,7.070503 6.006309,7.994765c0.576695,2.603587 1.77907,5.063352 7.528204,6.420136c0.942974,3.885287 4.398689,4.55469 7.743073,5.367914c-11.054058,5.850138 -20.531668,13.541399 -20.465983,32.418775l-1.620979,2.630024c-12.676151,7.015512 -24.077561,29.56054 -6.246784,47.887166c1.166749,5.736984 3.117269,9.855981 4.856259,14.417016c2.60292,18.376328 19.579788,26.980219 24.056408,27.9986c6.562964,4.547287 13.551213,8.861923 23.00767,11.886398c8.914275,8.369123 18.573355,11.557512 28.284761,11.554339l0.427511,0c9.713632,0.004231 19.372712,-3.185216 28.28476,-11.554339c9.457571,-3.02236 16.444706,-7.339111 23.00767,-11.886398c4.477734,-1.018381 21.455716,-9.622272 24.055295,-28.000715c1.738991,-4.55892 3.691737,-8.677917 4.858486,-14.414901c17.829664,-18.326626 6.428253,-40.874826 -6.24901,-47.891396l-1.618754,-2.626852c0.064572,-18.876318 -9.414151,-26.571809 -20.468209,-32.418775c3.344384,-0.814281 6.800099,-1.486857 7.746413,-5.367914c5.745794,-1.358899 6.947056,-3.816549 7.524864,-6.421193c1.501856,-0.927435 6.535131,-3.524676 6.007422,-7.997938c2.815562,-1.793535 4.385329,-4.099961 3.587086,-7.366605c3.028204,-3.049855 3.823107,-5.570956 2.537234,-7.89536c3.634958,-4.169757 2.021771,-6.332362 0.47093,-8.521405c2.722044,-4.561035 0.320634,-9.449898 -7.287729,-8.631386c-3.025977,-4.107364 -9.624567,-3.173584 -10.641019,-3.155606c-1.14337,-1.319771 -2.651905,-2.44919 -7.288842,-1.902458c-3.001485,-2.472456 -6.361455,-2.05051 -9.824964,-0.835432c-4.111454,-2.953622 -6.835725,-0.58586 -9.942973,0.30985c-4.979837,-1.482627 -6.118754,0.546732 -8.563583,1.373704c-5.430727,-1.044819 -7.081767,1.228825 -9.685799,3.62937l-3.028204,-0.053933c-8.190624,4.390776 -12.258659,13.338357 -13.699283,17.937462c-1.445077,-4.60122 -5.503093,-13.547744 -13.692603,-17.937462l-3.028204,0.051818c-2.607372,-2.400545 -4.257298,-4.672074 -9.686912,-3.627255c-2.445943,-0.826972 -3.583746,-2.855274 -8.56581,-1.373704c-2.041811,-0.587975 -3.917738,-1.810455 -6.126546,-1.748062l0.00334,0.001058z"/>
   <path stroke="null" id="svg_339" fill="#63C54D" d="m111.599064,810.344831c21.730703,10.193326 34.360985,18.444009 41.283548,25.470096c-3.543666,12.928044 -22.0333,13.517077 -28.795547,13.154351c1.386071,-0.58586 2.540574,-1.289103 2.950272,-2.366704c-1.696685,-1.096637 -7.710787,-0.115269 -11.911306,-2.264127c1.613186,-0.304562 2.368011,-0.600664 3.122835,-1.682496c-3.968951,-1.152684 -8.241836,-2.145685 -10.75569,-4.054488c1.357125,0.017977 2.622959,0.278125 4.395349,-0.841777c-3.5548,-1.742774 -7.346735,-3.122823 -10.291441,-5.787745c1.832509,-0.040185 3.816428,-0.017978 4.393123,-0.631333c-3.253093,-1.832662 -5.997403,-3.873654 -8.267442,-6.102882c2.571746,0.281297 3.656111,0.039127 4.279564,-0.371186c-2.460415,-2.290564 -5.572117,-4.225805 -7.05616,-7.049353c1.909327,0.59855 3.656111,0.828029 4.915265,-0.053933c-0.83721,-1.715279 -4.414275,-2.727315 -6.477239,-6.734215c2.010638,0.175546 4.142627,0.398681 4.566798,0c-0.930727,-3.460169 -2.530554,-5.405985 -4.101435,-7.418424c4.300718,-0.05922 10.818036,0.01269 10.523009,-0.319367l-2.660812,-2.470341c4.202747,-1.031071 8.502351,0.166029 11.624073,1.051164c1.400544,-1.005691 -0.024493,-2.276816 -1.733424,-3.579667c3.570386,0.434636 6.795646,1.183352 9.710292,2.212308c1.559748,-1.280643 -1.009772,-2.560228 -2.25334,-3.842986c5.516452,0.953873 7.854404,2.291621 10.175656,3.6336c1.686665,-1.472053 0.096858,-2.719913 -1.038719,-3.999498c4.158214,1.401199 6.300223,3.212711 8.558016,4.998843c0.764844,-0.941182 1.940277,-1.629621 0.519916,-3.894804c2.951163,1.54925 5.175557,3.375568 6.821029,5.419732c1.826943,-1.059624 1.088818,-2.508411 1.099951,-3.841929c3.069396,2.272586 5.015463,4.688993 7.4024,7.052525c0.476497,-0.317252 0.897328,-1.398026 1.270287,-3.104845c7.321128,6.46455 17.668234,22.750184 2.658585,29.206275c-12.773009,-9.586317 -28.028477,-16.557414 -44.93298,-21.786794l0.00334,0l0.002227,0zm115.096019,0c-21.728477,10.195441 -34.362322,18.441894 -41.282658,25.470096c3.545893,12.928044 22.03575,13.517077 28.794657,13.154351c-1.384958,-0.58586 -2.538348,-1.289103 -2.946933,-2.366704c1.695572,-1.096637 7.7119,-0.115269 11.910193,-2.264127c-1.613186,-0.304562 -2.369124,-0.600664 -3.121722,-1.682496c3.966725,-1.152684 8.240723,-2.145685 10.754578,-4.054488c-1.357126,0.017977 -2.625186,0.278125 -4.396463,-0.841777c3.5548,-1.742774 7.346735,-3.122823 10.29478,-5.787745c-1.839188,-0.040185 -3.818654,-0.017978 -4.395349,-0.631333c3.254206,-1.832662 5.998516,-3.873654 8.269669,-6.102882c-2.57286,0.281297 -3.657224,0.039127 -4.280678,-0.371186c2.459302,-2.290564 5.571005,-4.225805 7.055047,-7.049353c-1.909327,0.59855 -3.654997,0.828029 -4.915265,-0.053933c0.836096,-1.715279 4.414276,-2.727315 6.47724,-6.734215c-2.012865,0.175546 -4.142628,0.398681 -4.570139,0c0.936294,-3.460169 2.533894,-5.407042 4.105888,-7.420539c-4.300717,-0.058163 -10.819149,0.01269 -10.524122,-0.317252l2.663038,-2.470341c-4.204972,-1.032128 -8.504577,0.163914 -11.624072,1.049049c-1.402771,-1.005691 0.026719,-2.276816 1.732311,-3.578609c-3.567046,0.434636 -6.795646,1.183352 -9.710292,2.212308c-1.559748,-1.281701 1.010885,-2.560229 2.25334,-3.842987c-5.516453,0.953873 -7.852178,2.291622 -10.17677,3.630428c-1.684438,-1.46888 -0.094631,-2.717798 1.039832,-3.996326c-4.159327,1.401199 -6.301336,3.212712 -8.556902,4.995671c-0.763731,-0.939067 -1.941614,-1.627506 -0.519916,-3.894804c-2.952499,1.551365 -5.178006,3.375567 -6.823479,5.421847c-1.826942,-1.059624 -1.087704,-2.508411 -1.09995,-3.840872c-3.066057,2.271529 -5.015463,4.690051 -7.400174,7.052526c-0.478723,-0.317253 -0.899554,-1.398027 -1.2714,-3.105903c-7.322242,6.46455 -17.668234,22.750184 -2.659698,29.207332c12.768555,-9.591604 28.019792,-16.559528 44.928749,-21.786794l-0.00334,0"/>
   <path stroke="null" id="svg_340" fill="#C51850" d="m195.427764,941.997154c0.075705,12.064059 -11.517195,21.896775 -25.892257,21.961283c-14.376175,0.063451 -26.090426,-9.664572 -26.167244,-21.730746l0,-0.230537c-0.076819,-12.065116 11.516081,-21.897832 25.891143,-21.961283c14.377289,-0.06345 26.09154,9.664572 26.168358,21.729689l0,0.229479l0,0.002115zm-40.584612,-62.404645c10.783523,6.43071 12.727363,21.008468 4.34191,32.559635c-8.388793,11.551167 -23.929714,15.702947 -34.716577,9.271179c-10.783523,-6.430711 -12.728476,-21.010583 -4.340797,-32.559635c8.386567,-11.553283 23.928601,-15.702947 34.715464,-9.271179zm29.109723,-1.165375c-10.78575,6.432826 -12.729589,21.008468 -4.34191,32.56175c8.38768,11.549053 23.929491,15.702947 34.713014,9.269064c10.787977,-6.43071 12.72959,-21.008468 4.343023,-32.559635c-8.388792,-11.549052 -23.928377,-15.701889 -34.714127,-9.269064l0,-0.002115zm-82.348331,11.746807c11.642998,-2.842583 3.929985,43.84431 -5.54217,40.015071c-10.423924,-7.629925 -13.781668,-29.972969 5.539832,-40.015071l0.002338,0zm134.569262,-0.58163c-11.646338,-2.839411 -3.933325,43.847483 5.543172,40.017186c10.421697,-7.630982 13.777215,-29.975083 -5.543172,-40.017186zm-39.056037,-34.83201c20.096364,-3.088982 36.816057,7.775862 36.141391,27.609226c-0.661306,7.60243 -43.546018,-26.478749 -36.141391,-27.611341l0,0.002115zm-55.523009,-0.582687c-20.098702,-3.088983 -36.81962,7.779034 -36.143841,27.610283c0.661307,7.60243 43.547354,-26.479806 36.143841,-27.610283zm27.683573,-4.625543c-11.991465,-0.283412 -23.50198,8.103689 -23.532039,12.963999c-0.031173,5.911262 9.483176,11.961269 23.61665,12.115666c14.429614,0.09306 23.637804,-4.84339 23.684563,-10.941831c0.052325,-6.909762 -13.125928,-14.243585 -23.769174,-14.137834zm0.927387,121.191342c10.457323,-0.416658 24.490599,3.06466 24.516205,7.681743c0.17479,4.483837 -12.725136,14.61477 -25.209797,14.420189c-12.928872,0.508661 -25.60725,-9.639192 -25.440253,-13.155409c-0.194829,-5.157469 15.744434,-9.182347 26.133845,-8.946523zm-38.698887,-27.367267c7.443815,8.163967 10.836071,22.5059 4.625915,26.732762c-5.877165,3.228574 -20.153142,1.899285 -30.300965,-11.367161c-6.840179,-11.129222 -5.957435,-22.457255 -1.153501,-25.786292c7.184191,-3.982578 18.285008,1.398026 26.826324,10.420691l0.002227,0zm74.958289,-2.588782c-8.057026,8.589086 -12.542553,24.249732 -6.666502,29.294049c5.617764,3.920184 20.700891,3.371337 31.844014,-10.698816c8.090425,-9.449898 5.378401,-25.228985 0.758164,-29.419892c-6.864671,-4.833872 -16.71858,1.351496 -25.936789,10.821487l0,0.003172"/>
  </g>
  <g stroke="null" id="svg_284">
   <rect stroke="null" x="39823.024611" y="4384.823643" transform="matrix(0.9738014309259052,0,0,0.9254402611462808,-38036.949346452144,-3594.214349057457) " id="svg_342" rx="60" fill="#242938" height="256" width="256"/>
   <path stroke="null" id="svg_343" d="m759.323627,574.73082l214.860522,0l0,67.658011c0,15.899064 -13.668276,28.074156 -31.508319,28.074156l-151.844371,0c-17.844229,0 -31.507832,-12.175092 -31.507832,-28.074156l0,-67.658011z" fill="#000"/>
   <path stroke="#000" id="svg_344" d="m802.787112,564.465836c-6.645416,-5.924668 -17.421892,-5.924668 -24.067308,0c-6.645416,5.921893 -6.645416,15.523335 0,21.448004c6.645415,5.920967 17.421892,5.920967 24.067308,0l127.777549,0c6.649117,5.920967 17.421308,5.920967 24.070424,0c6.646194,-5.924669 6.646194,-15.526111 0,-21.448004c-6.649117,-5.924668 -17.421308,-5.924668 -24.070424,0l-127.777549,0z" stroke-width="28.695" fill="#FFB13B"/>
   <path stroke="#000" id="svg_345" d="m830.011679,527.350778c0,-8.379492 -7.619218,-15.168521 -17.018641,-15.168521c-9.403318,0 -17.022536,6.789029 -17.022536,15.168521c0,8.375975 7.619218,15.164912 17.022536,15.164912l90.350952,80.512932c0,8.37616 7.619022,15.16519 17.018153,15.16519c9.399131,0 17.019128,-6.78903 17.019128,-15.16519c0,-8.375234 -7.619997,-15.164264 -17.019128,-15.164264l-90.350465,-80.51358z" stroke-width="28.725" fill="#FFB13B"/>
   <path stroke="#000" id="svg_346" d="m878.71363,518.259067c6.645221,-5.924946 6.645221,-15.526388 0,-21.451427c-6.65009,-5.921337 -17.426177,-5.921337 -24.071397,0c-6.645221,5.925039 -6.645221,15.526481 0,21.451427l0,113.862006c-6.645221,5.920967 -6.645221,15.526111 0,21.447078c6.645221,5.925594 17.421308,5.925594 24.071397,0c6.645221,-5.920967 6.645221,-15.526111 0,-21.447078l0,-113.862006z" stroke-width="28.695" fill="#FFB13B"/>
   <path stroke="#000" id="svg_347" d="m920.362144,542.515782c9.399131,0 17.019128,-6.788937 17.019128,-15.164913c0,-8.379584 -7.619997,-15.168521 -17.019128,-15.168521c-9.399131,0 -17.018153,6.788937 -17.018153,15.168521l-90.350952,80.513488c-9.403318,0 -17.022536,6.78903 -17.022536,15.164264c0,8.37616 7.619218,15.16519 17.022536,15.16519c9.399423,0 17.018641,-6.78903 17.018641,-15.16519l90.350465,-80.51284z" stroke-width="28.725" fill="#FFB13B"/>
   <path stroke="null" id="svg_348" d="m802.787112,564.465836c-6.645416,-5.924668 -17.421892,-5.924668 -24.067308,0c-6.645416,5.921893 -6.645416,15.523335 0,21.448004c6.645415,5.920967 17.421892,5.920967 24.067308,0l127.777549,0c6.649117,5.920967 17.421308,5.920967 24.070424,0c6.646194,-5.924669 6.646194,-15.526111 0,-21.448004c-6.649117,-5.924668 -17.421308,-5.924668 -24.070424,0l-127.777549,0z" fill="#FFB13B"/>
   <path stroke="null" id="svg_349" d="m830.011679,527.350778c0,-8.379584 -7.619218,-15.168521 -17.018641,-15.168521c-9.403318,0 -17.022536,6.788937 -17.022536,15.168521c0,8.375975 7.619218,15.165004 17.022536,15.165004l90.350952,80.51284c0,8.37616 7.619022,15.16519 17.018153,15.16519c9.399131,0 17.019128,-6.78903 17.019128,-15.16519c0,-8.375234 -7.619997,-15.164264 -17.019128,-15.164264l-90.350465,-80.51358z" fill="#FFB13B"/>
   <path stroke="null" id="svg_350" d="m878.71363,518.259067c6.645221,-5.924946 6.645221,-15.526388 0,-21.451427c-6.65009,-5.921337 -17.426177,-5.921337 -24.071397,0c-6.645221,5.925039 -6.645221,15.526481 0,21.451427l0,113.862006c-6.645221,5.920967 -6.645221,15.526111 0,21.447078c6.645221,5.925594 17.421308,5.925594 24.071397,0c6.645221,-5.920967 6.645221,-15.526111 0,-21.447078l0,-113.862006z" fill="#FFB13B"/>
   <path stroke="null" id="svg_351" d="m920.362144,542.515782c9.399131,0 17.019128,-6.78903 17.019128,-15.165004c0,-8.379584 -7.619997,-15.168521 -17.019128,-15.168521c-9.399131,0 -17.018153,6.788937 -17.018153,15.168521l-90.350952,80.51358c-9.403318,0 -17.022536,6.78903 -17.022536,15.164264c0,8.37616 7.619218,15.16519 17.022536,15.16519c9.399423,0 17.018641,-6.78903 17.018641,-15.16519l90.350465,-80.51284z" fill="#FFB13B"/>
   <path stroke="null" id="svg_352" d="m759.323627,575.65626l214.860522,0l0,67.658012c0,15.899063 -13.668276,28.074155 -31.508319,28.074155l-151.844371,0c-17.844229,0 -31.507832,-12.175092 -31.507832,-28.074155l0,-67.658012z" fill-opacity="0.9" fill="#000"/>
   <path stroke="null" id="svg_353" d="m791.48566,622.978648c-5.040105,-4.490236 -8.159385,-10.689761 -8.159385,-17.536168c0,-13.701143 12.473032,-24.810128 27.840885,-24.810128c15.375351,0 27.844586,11.108985 27.844586,24.810128l-16.307376,0c0,-5.675726 -5.169522,-10.274238 -11.53721,-10.274238c-6.367785,0 -11.529712,4.598512 -11.529712,10.274238c0,2.833698 1.293404,5.403646 3.370327,7.254526l0.007595,0c2.088317,1.86939 3.826748,2.407996 8.15179,3.022488c7.691473,0.712589 14.648895,2.776321 19.688999,7.266557c5.040201,4.493012 8.155587,10.692537 8.155587,17.53987c0,13.700218 -12.469235,24.812904 -27.844586,24.812904c-15.367853,0 -27.840885,-11.112686 -27.840885,-24.812904l16.311174,0c0,5.675725 5.161927,10.280715 11.529712,10.280715c6.367687,0 11.53721,-4.604991 11.53721,-10.280715c0,-2.834624 -1.289507,-5.397168 -3.370229,-7.255452l-0.007596,0c-2.088317,-1.861985 -5.085873,-2.501465 -8.159385,-3.015084l0,-0.003701c-7.455716,-1.01891 -14.6413,-2.780023 -19.681501,-7.273035z" fill="#fff"/>
   <path stroke="null" id="svg_354" d="m894.697607,580.632352l-19.697082,84.706473l-16.307278,0l-19.681501,-84.706473l16.311174,0l11.541495,49.611927l11.522019,-49.611927l16.311174,0z" fill="#fff"/>
   <path stroke="null" id="svg_355" d="m922.545407,615.719495l27.837087,0l0,24.806426l0.00779,0c0,13.703919 -12.469527,24.816606 -27.844878,24.816606c-15.379247,0 -27.840984,-11.112687 -27.840984,-24.816606l0,-35.083441l-0.006817,0c0,-13.701143 12.468553,-24.806426 27.8478,-24.806426c15.368534,0 27.837087,11.105283 27.837087,24.806426l-16.307279,0c0,-5.668321 -5.168938,-10.274238 -11.529808,-10.274238c-6.371583,0 -11.532731,4.605916 -11.532731,10.274238l0,35.083441c0,5.675725 5.161147,10.277014 11.532731,10.277014c6.36087,0 11.522018,-4.60129 11.529808,-10.269611l0,-10.274238l-11.529808,0l0,-14.539592z" fill="#fff"/>
  </g>
  <g stroke="null" id="svg_360">
   <rect stroke="null" x="40404.642307" y="4151.652121" transform="matrix(1.1356314995314851,0,0,1.1021514638806602,-44353.27061533527,-4355.780025370689) " id="svg_357" fill="white" rx="60" height="256" width="256"/>
   <rect stroke="null" x="40404.642307" y="4151.652121" transform="matrix(1.1356314995314851,0,0,1.1021514638806602,-44353.27061533527,-4355.780025370689) " id="svg_358" fill="#1D9BF0" rx="60" height="256" width="256"/>
   <path stroke="null" id="svg_359" fill="white" d="m1758.154165,320.718646c0.124919,1.749004 0.124919,3.497898 0.124919,5.262993c0,53.782126 -42.186439,115.809006 -119.326479,115.809006l0,-0.033064c-22.787469,0.033064 -45.101492,-6.302102 -64.284693,-18.246118c3.313432,0.386855 6.643558,0.579732 9.981974,0.587447c18.884189,0.016532 37.228726,-6.133473 52.085398,-17.456977c-17.94593,-0.330645 -33.68283,-11.686112 -39.180309,-28.264674c6.286402,1.177097 12.76393,0.934624 18.934044,-0.700969c-19.565228,-3.836589 -33.641267,-20.519856 -33.641267,-39.895678c0,-0.177447 0,-0.346076 0,-0.515807c5.829765,3.151051 12.357034,4.900165 19.033752,5.094144c-18.427552,-11.952833 -24.107753,-35.744536 -12.979814,-54.346207c21.292637,25.428067 52.708292,40.886403 86.433141,42.522326c-3.380775,-14.136305 1.236703,-28.949882 12.131951,-38.887431c16.891383,-15.409951 43.457211,-14.620149 59.33561,1.765096c9.391673,-1.797278 18.393824,-5.142088 26.631695,-9.881119c-3.129801,9.421742 -9.682394,17.424905 -18.435842,22.510562c8.312823,-0.951046 16.434859,-3.111043 24.083337,-6.407467c-5.630461,8.188544 -12.72248,15.321338 -20.927417,21.083937z"/>
  </g>
  <g stroke="null" id="svg_370">
   <rect stroke="null" x="39180.272745" y="4413.170463" transform="matrix(1.051306581162635,0,0,1.024646377266512,-40878.67746430668,-4060.772050406238) " id="svg_365" rx="60" fill="#242938" height="256" width="256"/>
   <path stroke="null" id="svg_366" d="m347.246766,563.844841c0,0 -4.977306,-3.497118 0.995482,-8.166329l13.91583,-12.127817c0,0 3.981823,-4.08301 8.191886,-0.525541l128.415521,94.75817l0,45.438969c0,0 -0.062026,7.135637 -9.457554,6.34666l-142.061166,-125.724111z" fill="#2489CA"/>
   <path stroke="null" id="svg_367" d="m380.345998,593.133333l-33.099337,29.328453c0,0 -3.401186,2.466324 0,6.873327l15.367579,13.622674c0,0 3.650031,3.820907 9.042077,-0.525643l35.090301,-25.932775l-26.400621,-23.366035z" fill="#1070B3"/>
   <path stroke="null" id="svg_368" d="m438.456234,593.376174l60.703493,-45.176557l-0.394241,-45.196229c0,0 -2.592521,-9.863964 -11.24057,-4.72987l-80.778192,71.654649l31.709509,23.448007z" fill="#0877B9"/>
   <path stroke="null" id="svg_369" d="m489.307932,689.630429c3.526083,3.516587 7.798593,2.364884 7.798593,2.364884l47.305642,-22.719484c6.055525,-4.022761 5.205018,-9.014839 5.205018,-9.014839l0,-135.670147c0,-5.962827 -6.263685,-8.024518 -6.263685,-8.024518l-40.999905,-19.263045c-8.959234,-5.396812 -14.82868,0.970238 -14.82868,0.970238c0,0 7.548381,-5.295783 11.24057,4.72987l0,179.389964c0,1.233675 -0.270185,2.445832 -0.808454,3.538104c-1.078641,2.122043 -3.422003,4.102684 -9.042288,3.273745l0.393188,0.425228z" fill="#3C99D4"/>
  </g>
  <g stroke="null" id="svg_375">
   <rect stroke="null" x="40337.785562" y="5003.985869" transform="matrix(1.0277446957004444,0,0,1.0463480579974889,-40236.889992368466,-4129.18823027227) " id="svg_371" rx="60" fill="#242938" height="256" width="256"/>
   <path stroke="null" id="svg_372" d="m1407.10469,1159.040069l36.998809,0l-92.497022,162.445536l-92.497023,-162.445536l36.536324,0l34.223899,0l21.7368,37.66853l21.274315,-37.66853l34.223898,0z" fill="#41B883"/>
   <path stroke="null" id="svg_373" d="m1259.109453,1159.040069l92.497023,162.445536l92.497022,-162.445536l-36.998809,0l-55.498213,97.467322l-55.960699,-97.467322l-36.536324,0z" fill="#41B883"/>
   <path stroke="null" id="svg_374" d="m1295.645777,1159.040069l55.960699,97.938178l55.498213,-97.938178l-34.223898,0l-21.274315,37.66853l-21.7368,-37.66853l-34.223899,0z" fill="#fff"/>
  </g>
  <g stroke="null" id="svg_382">
   <rect stroke="null" x="38984.744321" y="5239.819256" transform="matrix(0.9458994962457079,0,0,0.9012586027940209,-36854.64283690487,-3515.074465873261) " id="svg_376" rx="60" fill="#0073AA" height="256" width="256"/>
   <path stroke="null" id="svg_377" d="m60.937474,1322.713409c0,30.602236 18.665246,57.048769 45.731309,69.581671l-38.706208,-101.0456c-4.502197,9.615618 -7.025101,20.255877 -7.025101,31.463929z" fill="#fff"/>
   <path stroke="null" id="svg_378" d="m196.857462,1318.811861c0,-9.554243 -3.601985,-16.171283 -6.691293,-21.321976c-4.113717,-6.368474 -7.969203,-11.761605 -7.969203,-18.130079c0,-7.106965 5.657425,-13.722563 13.625682,-13.722563c0.360388,0 0.700912,0.042629 1.05184,0.061826c-14.436318,-12.601668 -33.669292,-20.295533 -54.795012,-20.295533c-28.347094,0 -53.287153,13.857933 -67.795927,34.847795c1.903717,0.054436 3.697805,0.09265 5.221743,0.09265c8.487273,0 21.62506,-0.981201 21.62506,-0.981201c4.374123,-0.245683 4.889827,5.875666 0.520339,6.368474c0,0 -4.395784,0.492808 -9.287125,0.737049l29.548387,83.743237l17.757371,-50.743563l-12.641946,-33.002648c-4.36911,-0.244151 -8.508366,-0.737049 -8.508366,-0.737049c-4.372894,-0.244151 -3.860216,-6.614067 0.512677,-6.368474c0,0 13.399612,0.981291 21.372599,0.981291c8.486611,0 21.625155,-0.981291 21.625155,-0.981291c4.377622,-0.245593 4.891246,5.875666 0.520244,6.368474c0,0 -4.405054,0.492898 -9.286841,0.737049l29.32383,83.109021l8.093116,-25.768786c3.508342,-10.694334 6.17767,-18.37486 6.17767,-24.993703z" fill="#fff"/>
   <path stroke="null" id="svg_379" d="m143.504001,1329.476454l-24.345561,67.405131c7.268291,2.035943 14.956563,3.149899 22.921982,3.149899c9.44859,0 18.510307,-1.556474 26.944893,-4.382821c-0.217557,-0.330762 -0.41525,-0.682253 -0.576998,-1.065288l-24.944316,-65.106921z" fill="#fff"/>
   <path stroke="null" id="svg_380" d="m213.279223,1285.62076c0.349037,2.462599 0.54673,5.10626 0.54673,7.949912c0,7.845095 -1.538032,16.664812 -6.170102,27.692612l-24.785405,68.278451c24.123275,-13.403518 40.349235,-38.304392 40.349235,-66.826523c0.000946,-13.442272 -3.601985,-26.081703 -9.940458,-37.094452z" fill="#fff"/>
   <path stroke="null" id="svg_381" d="m142.080422,1232.592957c-52.154722,0 -94.588058,40.427757 -94.588058,90.120452c0,49.699005 42.433336,90.124959 94.588058,90.124959c52.152169,0 94.591842,-40.425954 94.591842,-90.124959c-0.001892,-49.692695 -42.439673,-90.120452 -94.591842,-90.120452zm0,176.114943c-49.76311,0 -90.251014,-38.577473 -90.251014,-85.994491c0,-47.413863 40.48639,-85.988092 90.251014,-85.988092c49.760935,0 90.245433,38.574229 90.245433,85.988092c0,47.417018 -40.484498,85.994491 -90.245433,85.994491z" fill="#fff"/>
  </g>
  <defs>
   <linearGradient y2="0.131417" x2="0.187929" y1="0.808932" x1="0.76155" id="svg_388">
    <stop stop-color="#5391FE"/>
    <stop stop-color="#3E6DBF" offset="1"/>
   </linearGradient>
   <linearGradient y2="0.803826" x2="0.754096" y1="0.113801" x1="0.176982" id="svg_387">
    <stop stop-color="#5391FE"/>
    <stop stop-color="#3E6DBF" offset="1"/>
   </linearGradient>
  </defs>
  <g stroke="null" id="svg_397">
   <rect stroke="null" x="1679.205587" y="93.0906" transform="matrix(0.8884125258183846,0,0,0.8753916371960457,-278.0996516666969,-23.318674125181673) " id="svg_390" fill="#242938" rx="60" height="256" width="256"/>
   <path stroke="null" id="svg_391" fill="url(#svg_388)" d="m1246.071615,236.093658c-1.121354,0.033265 -2.235512,-0.188209 -3.256387,-0.646039c-1.020786,-0.458705 -1.921014,-1.142386 -2.631211,-1.998519c-0.710108,-0.926164 -1.198646,-1.999394 -1.429367,-3.137404c-0.230721,-1.138885 -0.197494,-2.314535 0.097015,-3.438538l26.627411,-114.613364c0.591327,-2.375725 1.952287,-4.496887 3.876677,-6.042303c1.92439,-1.545416 4.307379,-2.430787 6.788271,-2.522091l132.673661,0c1.121177,-0.031777 2.235246,0.190135 3.255143,0.64849c1.020786,0.458443 1.921636,1.141161 2.632366,1.995893c0.709842,0.926865 1.198468,1.99957 1.428567,3.138191c0.230987,1.138622 0.198116,2.313923 -0.095949,3.438276l-26.646157,114.619579c-0.591683,2.375813 -1.952731,4.496887 -3.877032,6.041953c-1.924302,1.545942 -4.307024,2.430963 -6.78836,2.522003l-132.654649,0l0,-0.006128z" clip-rule="evenodd" fill-rule="evenodd"/>
   <path stroke="null" id="svg_392" fill="url(#svg_387)" d="m1276.143669,105.168421l132.674016,0c0.92928,-0.037467 1.854117,0.146103 2.695444,0.535127c0.842215,0.389024 1.576932,0.972035 2.141963,1.699923c0.56503,0.727801 0.943494,1.578944 1.104297,2.48156c0.160803,0.902529 0.098614,1.829919 -0.181236,2.703822l-26.646157,114.613451c-0.525052,2.044915 -1.703087,3.870106 -3.360865,5.206829c-1.656889,1.335848 -3.706457,2.111445 -5.844866,2.21299l-132.654915,0c-0.92928,0.037642 -1.853939,-0.145315 -2.695977,-0.534864c-0.841949,-0.388674 -1.576577,-0.971685 -2.141607,-1.700011c-0.56503,-0.72745 -0.943849,-1.579207 -1.104563,-2.481735c-0.160714,-0.902529 -0.098436,-1.829569 0.181414,-2.703209l26.646423,-114.613451c0.523097,-2.043077 1.698023,-3.866692 3.351803,-5.20254c1.65378,-1.33576 3.699083,-2.113195 5.834827,-2.217892l0,0z" clip-rule="evenodd" fill-rule="evenodd"/>
   <path stroke="null" id="svg_393" fill="#2C5591" d="m1327.698514,204.554173l32.267143,0c1.827465,0.076159 3.554539,0.845628 4.820526,2.14646c1.265988,1.301707 1.973164,3.034107 1.973164,4.836539c0,1.802431 -0.707176,3.534831 -1.973164,4.836539c-1.265988,1.300832 -2.993062,2.070301 -4.820526,2.14646l-32.267143,0c-1.827465,-0.076159 -3.554539,-0.845628 -4.820526,-2.14646c-1.265988,-1.301707 -1.973164,-3.034107 -1.973164,-4.836539c0,-1.802431 0.707176,-3.534831 1.973164,-4.836539c1.265988,-1.300832 2.993062,-2.070301 4.820526,-2.14646l0,0z" clip-rule="evenodd" fill-rule="evenodd"/>
   <path stroke="null" id="svg_394" fill="#2C5591" d="m1348.629513,173.510159c-0.923949,1.53106 -2.21037,2.817886 -3.749989,3.751053l-59.88469,42.353198c-1.667639,1.068853 -3.687978,1.466281 -5.644262,1.109997c-1.956284,-0.356284 -3.699261,-1.438268 -4.869478,-3.023603c-1.170217,-1.585334 -1.6783,-3.552339 -1.419594,-5.495709c0.258795,-1.943369 1.264655,-3.715162 2.810138,-4.949464l54.003488,-38.533864l0,-0.787852l-33.929807,-35.545102c-1.265011,-1.499458 -1.901203,-3.418142 -1.778868,-5.364312c0.122334,-1.946083 0.994045,-3.772763 2.437182,-5.106947c1.443048,-1.334184 3.348604,-2.075116 5.327455,-2.071614c1.979294,0.003502 3.881385,0.751261 5.319725,2.090523l40.718611,42.677968c1.093636,1.201913 1.752838,2.726845 1.871885,4.337566c0.119047,1.609845 -0.307391,3.212687 -1.211795,4.558164z" clip-rule="evenodd" fill-rule="evenodd"/>
   <path stroke="null" id="svg_395" fill="white" d="m1347.112105,172.035124c-0.919507,1.531935 -2.204151,2.818761 -3.742882,3.751053l-59.865678,42.359326c-1.668172,1.046093 -3.678383,1.426888 -5.621253,1.063601c-1.942869,-0.362412 -3.672342,-1.44177 -4.836074,-3.017475c-1.163732,-1.57483 -1.674213,-3.528704 -1.427501,-5.461568c0.246623,-1.93374 1.231962,-3.701156 2.755234,-4.944212l54.009529,-38.532989l0,-0.79398l-33.92954,-35.564449c-1.276826,-1.498583 -1.922525,-3.422169 -1.804366,-5.37543c0.118248,-1.953174 0.99138,-3.787645 2.439847,-5.126031c1.448557,-1.338474 3.362464,-2.079318 5.348243,-2.070126c1.98578,0.009104 3.892935,0.767543 5.328609,2.119323l40.711504,42.677968c1.098966,1.203664 1.758168,2.734723 1.872774,4.349821c0.115494,1.615098 -0.320717,3.222317 -1.238447,4.565167l0,0z" clip-rule="evenodd" fill-rule="evenodd"/>
   <path stroke="null" id="svg_396" fill="white" d="m1326.81099,203.730429l32.267143,0c1.782156,0 3.490573,0.697687 4.75123,1.938992c1.259769,1.241305 1.967834,2.925559 1.967834,4.680719c0,1.756036 -0.708065,3.440289 -1.967834,4.681594c-1.260657,1.241305 -2.969075,1.938992 -4.75123,1.938992l-32.267143,0c-1.782156,0 -3.491461,-0.697687 -4.75123,-1.938992c-1.259769,-1.241305 -1.967834,-2.925559 -1.967834,-4.681594c0,-1.75516 0.708065,-3.439414 1.967834,-4.680719c1.259769,-1.241305 2.969075,-1.938992 4.75123,-1.938992l0,0z" clip-rule="evenodd" fill-rule="evenodd"/>
  </g>
  <defs>
   <linearGradient y2="0.857723" x2="0.576359" y1="-0.033213" x1="-0.008281" id="svg_403">
    <stop stop-color="#41D1FF"/>
    <stop stop-color="#BD34FE" offset="1"/>
   </linearGradient>
   <linearGradient y2="0.890301" x2="0.5105" y1="0.022418" x1="0.279861" id="svg_402">
    <stop stop-color="#FFEA83"/>
    <stop stop-color="#FFDD35" offset="0.083333"/>
    <stop stop-color="#FFA800" offset="1"/>
   </linearGradient>
  </defs>
  <g id="svg_408">
   <rect x="1447.075356" y="376.673321" transform="matrix(1.2939063584804558,0,0,1.2939063584804558,0,0) " id="svg_405" fill="#242938" rx="60" height="256" width="256"/>
   <path id="svg_406" fill="url(#svg_403)" d="m2166.210612,561.911081l-121.409821,217.101184c-2.507591,4.483386 -8.947362,4.509264 -11.491182,0.049168l-123.817393,-217.12952c-2.771936,-4.860818 1.384609,-10.748739 6.893027,-9.764076l121.53973,21.724429c0.77505,0.138577 1.569508,0.137283 2.344558,-0.004011l118.99798,-21.689364c5.490045,-1.000578 9.66548,4.841668 6.943102,9.712191z"/>
   <path id="svg_407" fill="url(#svg_402)" d="m2095.820812,523.673043l-89.84627,17.605149c-1.477641,0.289317 -2.570992,1.540784 -2.658978,3.04275l-5.527439,93.343699c-0.130038,2.198347 1.889103,3.905009 4.034271,3.409443l25.015092,-5.772116c2.340677,-0.539559 4.45492,1.521634 3.97488,3.87525l-7.432198,36.39241c-0.500742,2.449365 1.799824,4.542905 4.190963,3.817024l15.450536,-4.694292c2.395021,-0.727175 4.69688,1.372835 4.189669,3.824787l-11.810777,57.163489c-0.738821,3.576357 4.017579,5.526274 6.001138,2.459716l1.32496,-2.04696l73.21181,-146.107647c1.226623,-2.446389 -0.88762,-5.235921 -3.575063,-4.717324l-25.747443,4.969377c-2.419605,0.466453 -4.47821,-1.786885 -3.796321,-4.154216l16.80655,-58.258393c0.683183,-2.371342 -1.383186,-4.626621 -3.805379,-4.152146z"/>
  </g>
  <defs>
   <linearGradient y2="1" x2="1" y1="0" x1="0" id="svg_412">
    <stop stop-color="#FF5C00"/>
    <stop stop-color="#FF0F00" offset="1"/>
   </linearGradient>
  </defs>
  <g stroke="null" id="svg_425">
   <rect stroke="null" x="3137.69142" y="1798.723195" transform="matrix(1.0242884540150408,0,0,0.9461631491021743,-1409.5101025503827,-667.4945113370632) " id="svg_414" fill="url(#svg_412)" rx="60" height="256" width="256"/>
   <path stroke="null" id="svg_415" fill="white" d="m1885.553867,1099.431103c-10.228442,13.829878 -8.954432,31.821548 -1.161646,46.499377l0.573089,1.04551l0.387181,0.662314c0.0717,0.128678 0.154872,0.255464 0.228519,0.380358c0.135513,0.232756 0.271027,0.456051 0.387181,0.685022l0.745375,1.20352l0.426002,0.662314l0.865421,1.273536l0.387181,0.536475c0.387283,0.572429 0.824757,1.141073 1.254651,1.702148c0.009628,0.014192 0.023149,0.030277 0.034826,0.04447c0.067705,0.089885 0.143298,0.178825 0.193591,0.26871c0.371714,0.482543 0.774465,0.958463 1.161646,1.430599l0.429791,0.514713l1.055222,1.22055l0.40275,0.454158c0.479879,0.534582 0.970411,1.062541 1.47139,1.581039l0.030934,0.028385c0.019359,0.022708 0.038718,0.035954 0.058077,0.058662c0.48541,0.506197 0.983727,1.001041 1.494744,1.48453l0.480084,0.454158l1.194628,1.10228l0.487869,0.436181c0.53683,0.474974 1.082263,0.941432 1.635994,1.400321l0.309745,0.249787l1.485013,1.180812l0.6157,0.461728l1.239082,0.894124l0.662202,0.474028l1.8935,1.278266c0.048346,0.030277 0.090957,0.062447 0.139406,0.092724c0.445258,0.286687 0.89656,0.563913 1.349295,0.841139l0.584869,0.366165l2.114131,1.216766l0.584869,0.309395l1.587647,0.836408c0.289874,0.146655 0.586917,0.286687 0.876791,0.425773l1.134912,0.536475l0.261194,0.11827l0.465027,0.210994l1.799675,0.783423l0.38206,0.178825c0.694468,0.284795 1.394057,0.558236 2.098767,0.820323l0.51112,0.190179l1.97995,0.689753l0.247878,0.082316c0.731342,0.238433 1.467805,0.465512 2.207342,0.680291l0.53263,0.149494c0.774362,0.214779 1.500583,0.471189 2.279042,0.608383c49.462889,8.506007 63.834681,-27.945875 63.834681,-27.945875c-12.067142,14.790422 -33.487062,18.688615 -53.780265,14.348564c-0.769241,-0.178825 -1.514923,-0.387927 -2.265726,-0.597029l-0.565407,-0.178825c-0.731342,-0.210994 -1.459611,-0.435235 -2.179686,-0.667045l-0.300117,-0.102186c-0.644277,-0.214779 -1.285482,-0.438074 -1.922589,-0.67083l-0.541849,-0.200587c-0.69754,-0.258303 -1.389959,-0.528905 -2.076233,-0.811808l-0.413813,-0.171256l-1.750509,-0.769231l-0.502926,-0.228971c-0.454784,-0.210994 -0.906495,-0.427666 -1.356158,-0.649068l-0.903422,-0.447535c-0.54697,-0.27628 -1.087794,-0.562021 -1.622473,-0.856278l-0.547994,-0.286687c-0.712905,-0.392658 -1.417615,-0.804239 -2.114131,-1.21582c-0.193591,-0.116378 -0.380011,-0.239379 -0.571553,-0.35765l-1.50468,-0.940486l-0.483464,-0.321695l-1.422737,-0.966033l-0.631986,-0.447535l-1.283433,-0.944271l-0.572577,-0.428612l-1.59789,-1.251774c-0.054287,-0.045416 -0.115745,-0.089885 -0.193591,-0.13814c-0.56848,-0.470243 -1.128766,-0.952786 -1.679833,-1.438168l-0.473221,-0.428612l-1.207739,-1.112688l-0.472402,-0.447535c-0.503233,-0.482543 -0.99694,-0.973602 -1.481121,-1.473176c-0.023251,-0.025546 -0.050293,-0.048254 -0.073544,-0.071908c-0.511735,-0.527013 -1.012612,-1.064434 -1.502426,-1.609424l-0.393019,-0.439966l-1.084209,-1.257451l-0.396912,-0.464566l-1.248812,-1.564954c-11.268095,-14.459454 -15.295187,-34.400411 -6.311665,-50.778779l-7.97091,9.528714zm31.75161,-11.653324c-7.395363,10.015137 -6.994866,23.417633 -1.225049,34.008699c0.96488,1.778314 2.057796,3.494937 3.271577,5.138139c1.10828,1.493329 2.337426,3.273062 3.808304,4.470905c0.53263,0.536475 1.089843,1.072949 1.659347,1.620777c0.1434,0.137194 0.290898,0.267764 0.437371,0.405904c0.553116,0.506197 1.118523,1.001041 1.696222,1.482638c0.023559,0.017977 0.045069,0.038793 0.069652,0.05677c0.651447,0.534582 1.316211,1.05308 1.996338,1.556438l0.449663,0.328319c0.67603,0.492005 1.367425,0.966033 2.071111,1.423976c0.018437,0.014192 0.037899,0.028385 0.058384,0.041631c0.309335,0.201533 0.628913,0.392658 0.944394,0.585675c0.151595,0.09367 0.293971,0.192071 0.445565,0.279118c0.504974,0.305611 1.017118,0.600814 1.535408,0.885609l0.217149,0.11827l1.355134,0.715299c0.158765,0.084209 0.320602,0.157063 0.483464,0.235595l0.967953,0.461728c0.049166,0.023654 0.097307,0.040685 0.1434,0.062447c0.652472,0.303718 1.309041,0.590406 1.980974,0.867632c0.1434,0.058662 0.289874,0.112593 0.437371,0.169363c0.536727,0.214779 1.078576,0.422935 1.62657,0.620683l0.696516,0.240325c0.494731,0.169363 0.991511,0.332103 1.491364,0.48822l0.672958,0.201533c0.710856,0.209102 1.413518,0.470243 2.155103,0.586621c38.189571,5.952312 47.008694,-21.711227 47.008694,-21.711227c-7.947454,10.766012 -23.337388,15.906516 -39.763902,11.896677c-0.726221,-0.178825 -1.44732,-0.375627 -2.162273,-0.590406c-0.219198,-0.062447 -0.433274,-0.128678 -0.650423,-0.178825c-0.507023,-0.154225 -1.010973,-0.317911 -1.51185,-0.490113l-0.684225,-0.239379c-0.547994,-0.178825 -1.089843,-0.402119 -1.625546,-0.616898c-0.147498,-0.059608 -0.294995,-0.112593 -0.43942,-0.17504c-0.673982,-0.272495 -1.338745,-0.562967 -1.99429,-0.871416c-0.336991,-0.155171 -0.667836,-0.317911 -0.999706,-0.479705l-0.576674,-0.278172c-0.426104,-0.216671 -0.847087,-0.439966 -1.263972,-0.67083l-0.302165,-0.178825c-0.515217,-0.284795 -1.025313,-0.578106 -1.529263,-0.879932c-0.155692,-0.09367 -0.306262,-0.178825 -0.46093,-0.289526l-0.991511,-0.617371c-0.700613,-0.457943 -1.387911,-0.931403 -2.063941,-1.420096l-0.465027,-0.343363c-7.188456,-5.340239 -12.888622,-12.636955 -15.59684,-20.912003c-2.840352,-8.584444 -2.226803,-18.215154 2.710267,-26.032354l-6.083249,8.026491zm26.699103,-8.70612c-4.360396,6.037751 -4.787524,13.534864 -1.742315,20.202097c3.190659,7.076827 9.728692,12.629859 17.358616,15.260665c0.314457,0.110796 0.629937,0.209197 0.967953,0.309395l0.418934,0.125177c0.448638,0.132274 0.896252,0.28612 1.359231,0.368341c21.088051,3.832623 26.806653,-10.179675 28.328746,-12.241743c-5.010819,6.787112 -13.43047,8.41631 -23.761444,6.057431c-0.813285,-0.187813 -1.713635,-0.465039 -2.517701,-0.726086c-1.010973,-0.337969 -2.00146,-0.725329 -2.967364,-1.160753c-1.838598,-0.832813 -3.581937,-1.833948 -5.20441,-2.988456c-9.264689,-6.599299 -15.008899,-19.186202 -8.97584,-29.437501"/>
   <path stroke="null" id="svg_416" fill="white" d="m1897.433667,1207.237122l-1.42878,4.678777l1.42878,-4.676884l0,-0.001892zm7.349475,10.155169l-1.574024,-0.009462l1.574024,0.009462zm-0.387181,6.985523l-9.432672,0.03217l9.432672,-0.03217zm1.974726,-6.975115l-1.57597,-0.008515l1.57597,0.008515zm-1.126717,6.380924l1.645519,-5.788626l-1.645519,5.788626zm34.714672,-26.660039l-3.05955,13.293592l3.05955,-13.293592zm-7.870632,0l-2.323086,9.931875l2.323086,-9.931875z"/>
   <path stroke="null" id="svg_417" fill="white" d="m1939.415768,1196.524663l-6.544179,0c-0.363622,0 -0.724172,0.26871 -0.800994,0.597029l-4.647197,19.864695c-0.076822,0.327372 -0.437371,0.595137 -0.798945,0.595137l-4.632857,0c-4.584715,0 -4.054134,-2.927429 -3.098473,-6.939161l0.029704,-0.121109l0.555164,-2.736304l0.239683,-1.12688l2.115156,-9.536378c0.072724,-0.328319 -0.16491,-0.598921 -0.528533,-0.598921l-6.718308,0c-0.185396,0.005677 -0.363622,0.067178 -0.508047,0.17504c-0.1434,0.107863 -0.245829,0.25641 -0.289874,0.421989l-3.026772,13.25953c-1.664469,7.017692 -1.223,13.71085 7.822491,13.919952l0.261194,0.004731l14.195614,0c0.363622,0 0.722123,-0.267764 0.799969,-0.597029l6.121148,-26.587184c0.077846,-0.328319 -0.160813,-0.597029 -0.522387,-0.597029l-0.023559,0.001892zm26.112186,21.126877c0.364647,0 0.580772,0.267764 0.528533,0.597029l-0.635059,2.870659l0.106526,-3.467688zm-0.741585,6.340239l0.635059,-2.872551l-0.635059,2.872551zm-0.796896,0.603652l-12.062021,0.053931l12.062021,-0.053931z"/>
   <path stroke="null" id="svg_418" fill="white" d="m1948.019791,1213.956773c-0.005121,-0.315072 0.38206,-0.855331 0.745682,-0.855331l-0.817382,-0.0123c-0.387181,3.423218 0.0717,0.867632 0.0717,0.867632zm4.503796,10.690697l-0.125987,0l0.125987,0zm13.004366,-6.99593c0.364647,0 0.580772,0.267764 0.528533,0.597029l-0.739536,3.337117l0.211003,-3.934146zm-9.906918,7.005392l-0.026631,0l0.026631,0zm-1.607109,-0.011354l-0.092186,0l0.092186,0zm-0.48961,0.001892l-0.154668,0l0.154668,0zm-0.478343,0l-0.135206,0l0.135206,0zm0.894204,-0.001892l-0.3964,0l0.3964,0z"/>
   <path stroke="null" id="svg_419" fill="white" d="m1955.596453,1224.656932l-1.580477,0.004731l1.580477,-0.004731zm8.396092,-0.045416l-8.373558,0.047308l8.373558,-0.047308zm0.774362,-0.619737l0.53263,-2.404201l-0.53263,2.405147l0,-0.000946zm-11.414671,0.655691l-0.306262,0l0.345185,0l-0.038923,0zm-0.958734,0l-0.464003,0l0.464003,0zm0.497804,0l-0.387181,0l0.387181,0zm-95.759396,-10.619735l1.016504,-4.163118l-1.161646,4.757308l-0.135513,0.597029l0.282601,-1.194058l-0.001946,0.002838zm12.170391,-17.571196l-7.188764,0c-0.185806,0.006623 -0.364339,0.068124 -0.509584,0.175986c-0.145244,0.106916 -0.249619,0.253572 -0.297761,0.420096l-1.363021,5.54357c-0.022944,0.071908 -0.026734,0.147601 -0.011165,0.221402c0.015569,0.072855 0.050088,0.141924 0.100688,0.200587c0.050497,0.058662 0.115642,0.105024 0.189698,0.135301c0.074056,0.030277 0.154975,0.043524 0.235791,0.038793l7.244895,0c0.36393,0 0.72407,-0.26871 0.801506,-0.596083l1.316518,-5.556816c0.077436,-0.326426 -0.154872,-0.595137 -0.522694,-0.595137l0.003892,0.0123zm-1.564396,9.243068l-2.129701,9.010312l2.129701,-9.010312zm-20.882783,29.857124l5.928377,0.043524c-1.750304,0 -4.640846,-0.030277 -5.930323,-0.04447l0.001946,0.000946z"/>
   <path stroke="null" id="svg_420" fill="white" d="m1859.145457,1205.699607l-1.018348,4.163118l1.018348,-4.163118zm8.073544,-0.596083l-7.246841,0c-0.185703,0.006623 -0.364237,0.068124 -0.509584,0.175986c-0.145244,0.106916 -0.249517,0.253572 -0.297761,0.420096l-2.032905,8.326236l-0.282704,1.195004l-1.936008,8.50033c-0.095976,0.396442 -0.212233,0.7891 -0.348565,1.175135c0,0 -1.355236,3.720314 -3.628235,3.678682l-2.255586,-0.038793c-0.184986,0.004731 -0.36352,0.063393 -0.509686,0.168417c-0.146268,0.105024 -0.252487,0.249787 -0.303394,0.414419l-1.50048,5.834988c-0.023763,0.071908 -0.028475,0.147601 -0.01393,0.220456c0.014545,0.073801 0.048039,0.142871 0.097615,0.201533c0.049473,0.058662 0.113696,0.10597 0.187138,0.137194c0.073339,0.031223 0.153746,0.045416 0.23446,0.042577l5.93022,0.04447c5.684391,0 8.679616,-2.910398 10.602103,-11.280157l4.356196,-18.599675c0.077436,-0.326426 -0.158765,-0.595137 -0.522694,-0.595137l-0.019359,-0.021762zm102.926445,19.204273c-0.363622,0 -0.580772,-0.267764 -0.522387,-0.597029l5.450239,-23.58217l-4.927852,24.179199zm7.574613,-0.598921l2.207342,-10.065284l-2.207342,10.065284z"/>
   <path stroke="null" id="svg_421" fill="white" d="m1969.701929,1224.009756c-0.044044,-0.164632 -0.018437,-0.567698 0.058384,-0.89507l2.586328,-11.195002l-2.725632,11.791085c-0.077846,0.329265 0.158765,0.597029 0.522387,0.597029l0.662715,0c-0.363622,0 -1.061163,-0.134355 -1.104183,-0.298041zm7.589977,0.163686c-0.197688,0.071908 -0.658617,0.134355 -1.02224,0.134355l0.66169,0c0.185396,-0.006623 0.362598,-0.06907 0.505998,-0.176933c0.1434,-0.107863 0.243781,-0.25641 0.287825,-0.421989l0.132133,-0.597029c-0.0717,0.328319 -0.387181,0.98874 -0.580772,1.061595l0.015364,0zm1.529263,-5.497208l0.974098,-4.442236l-0.974098,4.442236zm21.50596,-16.96849l0.300117,1.144857c0.083992,0.327372 -0.146473,0.593244 -0.509071,0.595137"/>
   <path stroke="null" id="svg_422" fill="white" d="m1977.851168,1223.111847l0.967953,-4.435613l-0.967953,4.435613zm22.179942,-22.599107l0.296019,1.173242l-0.296019,-1.173242zm-20.235843,13.721258l0.267339,-1.187435l1.039653,-4.49806l-1.176907,5.093196l-0.130085,0.590406l0,0.001892zm-4.632857,-14.493327l-0.226368,0.983064l-2.587353,11.195949l2.726656,-11.791085l0.087065,-0.386035l0,-0.001892z"/>
   <path stroke="null" id="svg_423" fill="white" d="m2000.629295,1202.852602l-0.300117,-1.144857l-0.444541,-1.788248c-0.588966,-2.11089 -2.315916,-3.332387 -6.067885,-3.332387l-17.270528,-0.010408c-0.185396,0.005677 -0.362598,0.067178 -0.507023,0.17504c-0.1434,0.107863 -0.245829,0.25641 -0.289874,0.421989l-0.267339,1.168511l-0.387181,1.764594l-5.312984,22.987034c-0.077846,0.329265 -0.102429,0.715299 -0.058384,0.894124c0.045069,0.178825 0.741585,0.298988 1.104183,0.298988l5.459457,0c0.363622,0 0.822504,-0.061501 1.02224,-0.134355c0.199736,-0.073801 0.491658,-0.715299 0.580772,-1.062541l2.072136,-9.468255l2.21656,-9.593148c0.076822,-0.327372 0.435323,-0.593244 0.797921,-0.595137l17.178342,-0.007569c0.362598,0 0.593063,-0.267764 0.509071,-0.595137l-0.034826,0.021762zm22.116436,-10.360486l-1.322356,0.004731l-5.49838,0c-0.201785,0.011354 -0.397424,0.062447 -0.576674,0.149494c-0.178226,0.087047 -0.333918,0.208156 -0.457857,0.354811l-12.158304,16.453777c-0.204858,0.277226 -0.43942,0.236541 -0.522387,-0.088939l-0.895228,-3.625697c-0.048142,-0.165579 -0.151595,-0.31318 -0.297044,-0.420096c-0.145449,-0.106916 -0.323675,-0.168417 -0.510096,-0.17504l-7.815321,0c-0.364647,0 -0.580772,0.263033 -0.480391,0.586621l3.484629,11.335035c0.10038,0.321695 0.106526,0.852493 0.019461,1.179865l-1.548724,5.485854c-0.026631,0.070016 -0.033802,0.144763 -0.020486,0.218564c0.013316,0.073801 0.046093,0.142871 0.095259,0.201533c0.049166,0.058662 0.113696,0.105024 0.187445,0.135301c0.073749,0.030277 0.154668,0.042577 0.235586,0.035954l7.743621,0c0.364647,0 0.736463,-0.267764 0.825576,-0.590406l1.548724,-5.484908c0.120866,-0.386035 0.311384,-0.751254 0.56131,-1.079572l19.759549,-24.202853c0.219198,-0.26871 0.101405,-0.486328 -0.263242,-0.483489l-2.071111,0.013246l-0.023559,-0.003785zm-62.102609,14.19434c-0.046093,0.35765 -0.409715,0.62636 -0.774362,0.62636l-9.913064,0c-0.342112,0 -0.516241,-0.214779 -0.464003,-0.483489l0.00717,-0.048254l0.045069,-0.155171c0.967953,-2.324723 2.875178,-3.850884 6.497062,-3.850884c4.079741,0 4.875613,1.84218 4.599055,3.911438l0.003073,0zm-2.907955,-10.565804c-12.719614,0 -15.734095,7.132178 -17.424171,14.330587c-1.692125,7.337495 -1.545651,14.200017 11.616455,14.200017l2.086476,0l1.607109,-0.005677l8.375607,-0.046362c0.184372,-0.007569 0.359525,-0.070016 0.501901,-0.177879c0.142376,-0.107863 0.242756,-0.255464 0.285776,-0.421043l1.272166,-5.744156c0.073749,-0.329265 -0.163886,-0.597975 -0.528533,-0.597975l-11.833605,0c-4.704557,0 -6.103735,-1.155265 -5.589542,-4.551045l18.916559,0c0.309335,-0.005677 0.58999,-0.178825 0.700613,-0.450374c0.019461,-0.048254 0.038923,-0.100293 0.046093,-0.152332c2.807575,-9.782381 2.002484,-16.376192 -10.028808,-16.376192l-0.004097,-0.007569zm-60.123376,10.527011l-0.178124,0.584729c0,0.001892 -1.42878,4.677831 -1.42878,4.677831l-1.428882,4.674992c-0.059306,0.165579 -0.171466,0.309395 -0.321422,0.414419c-0.150058,0.104078 -0.330948,0.164632 -0.518802,0.172202l-7.562424,0c-5.734684,0 -7.130687,-4.143248 -5.734684,-10.254516c1.393954,-6.250354 4.133516,-10.137192 9.777243,-10.52985c7.713404,-0.536475 9.254549,4.474406 7.395875,10.258301l0,0.001892zm5.184948,10.166523c0,0 3.562373,-7.994132 4.375453,-12.613301c1.103159,-6.183176 -2.245752,-15.148072 -15.188559,-15.148072c-12.869263,0 -18.456859,8.558992 -20.588505,17.884376c-2.129701,9.3708 0.6621,17.591065 13.455873,17.526726l19.527445,-0.066231c0.18724,-0.008515 0.367105,-0.070016 0.515115,-0.175986c0.14801,-0.106916 0.256789,-0.252626 0.311589,-0.418204l1.645417,-5.790518c0.026631,-0.070016 0.033802,-0.145709 0.02151,-0.218564c-0.012291,-0.073801 -0.045069,-0.142871 -0.094132,-0.201533c-0.048961,-0.059608 -0.113081,-0.10597 -0.186625,-0.136247c-0.073441,-0.030277 -0.153951,-0.043524 -0.234152,-0.037847l-3.149994,-0.017977c-0.309847,-0.001892 -0.484079,-0.185448 -0.44915,-0.428612c0.007682,-0.045416 0.019359,-0.089885 0.038718,-0.136247l0,-0.021762z"/>
   <path stroke="null" id="svg_424" fill="white" d="m1966.502052,1211.465525c0,0.221402 -0.193591,0.400227 -0.433274,0.400227c-0.240708,0 -0.434298,-0.178825 -0.434298,-0.400227c0,-0.222348 0.193591,-0.401173 0.434298,-0.401173c0.239683,0 0.433274,0.178825 0.433274,0.401173z"/>
  </g>
  <g id="svg_431">
   <rect x="2204.657286" y="112.388324" transform="matrix(0.898546044611269,0,0,0.898546044611269,0,0) " id="svg_429" fill="#242938" rx="60" height="256" width="256"/>
   <path id="svg_430" fill="white" d="m2096.000876,127.942465c-49.61942,0 -89.855503,40.228625 -89.855503,89.855503c0,39.70046 25.746309,73.38156 61.448599,85.263034c4.490304,0.832054 6.139136,-1.948946 6.139136,-4.322006c0,-2.143032 -0.083565,-9.22088 -0.122202,-16.72913c-24.997461,5.435305 -30.272286,-10.601945 -30.272286,-10.601945c-4.087486,-10.386294 -9.976826,-13.147526 -9.976826,-13.147526c-8.152598,-5.577275 0.614516,-5.462261 0.614516,-5.462261c9.02302,0.633475 13.774082,9.259517 13.774082,9.259517c8.014222,13.736972 21.020496,9.765398 26.148049,7.469613c0.806894,-5.808202 3.135027,-9.771688 5.704869,-12.015358c-19.958055,-2.272423 -40.938387,-9.977455 -40.938387,-44.407044c0,-9.810326 3.51008,-17.826255 9.258079,-24.118593c-0.93296,-2.263168 -4.008594,-11.40228 0.870511,-23.779123c0,0 7.545451,-2.415022 24.716755,9.210456c7.167702,-1.990908 14.853865,-2.989283 22.490607,-3.023518c7.635844,0.034235 15.329196,1.032609 22.509477,3.023518c17.150548,-11.625479 24.685755,-9.210456 24.685755,-9.210456c4.890786,12.376843 1.814164,21.515955 0.880575,23.779123c5.761477,6.292338 9.247836,14.308268 9.247836,24.118593c0,34.512255 -21.020586,42.111259 -41.029409,44.33516c3.223085,2.789087 6.094838,8.25674 6.094838,16.640174c0,12.022546 -0.104231,21.698988 -0.104231,24.658799c0,2.391031 1.617383,5.192698 6.172113,4.310325c35.683061,-11.894953 61.396753,-45.564371 61.396753,-85.251353c0,-49.626878 -40.230602,-89.855503 -89.853706,-89.855503zm-56.201719,128.00058c-0.19795,0.446577 -0.900253,0.580461 -1.540108,0.274057c-0.651715,-0.292926 -1.017783,-0.90214 -0.806445,-1.349616c0.193457,-0.460056 0.897198,-0.587649 1.547476,-0.279448c0.653243,0.292926 1.025241,0.907532 0.799077,1.355007zm4.419858,3.943719c-0.428517,0.398056 -1.266231,0.212955 -1.834651,-0.415128c-0.587739,-0.626287 -0.697901,-1.463732 -0.263364,-1.867179c0.441905,-0.397157 1.25437,-0.211158 1.843547,0.415128c0.587739,0.634374 0.702304,1.465529 0.254468,1.867179zm3.032233,5.046235c-0.550539,0.382781 -1.450792,0.024261 -2.007262,-0.775445c-0.550629,-0.798807 -0.550629,-1.756658 0.011861,-2.141235c0.557997,-0.383679 1.444862,-0.038637 2.00879,0.754779c0.549012,0.812286 0.549012,1.771034 -0.013388,2.161902zm5.128092,5.844143c-0.492493,0.542722 -1.541546,0.397157 -2.309353,-0.344143c-0.785599,-0.724228 -1.004395,-1.752165 -0.510374,-2.295785c0.498513,-0.544519 1.553496,-0.390868 2.327234,0.344143c0.779668,0.722431 1.017693,1.758455 0.492493,2.295785zm6.627586,1.972309c-0.217268,0.70446 -1.227594,1.024342 -2.245377,0.725127c-1.016256,-0.308201 -1.681359,-1.132168 -1.476042,-1.843816c0.211338,-0.708054 1.226066,-1.041415 2.251307,-0.721532c1.014818,0.306404 1.681359,1.12498 1.470111,1.840222zm7.542485,0.837445c0.025249,0.740402 -0.837714,1.355007 -1.906086,1.368486c-1.074302,0.024261 -1.943286,-0.575968 -1.955236,-1.304689c0,-0.748489 0.843735,-1.356805 1.918036,-1.374775c1.068371,-0.020667 1.943286,0.574171 1.943286,1.310979zm7.409231,-0.283941c0.128492,0.722431 -0.613707,1.465529 -1.67489,1.663209c-1.043212,0.190492 -2.008969,-0.256086 -2.141325,-0.973125c-0.12948,-0.7413 0.626376,-1.4835 1.667791,-1.675788c1.06298,-0.184202 2.013642,0.250694 2.148424,0.985705z"/>
  </g>
 </g>
</svg>